<?xml version="1.0" encoding="utf-8"?>
<!-- Generator: Adobe Illustrator 25.1.0, SVG Export Plug-In . SVG Version: 6.00 Build 0)  -->
<svg version="1.1" id="Layer_1" xmlns="http://www.w3.org/2000/svg" xmlns:xlink="http://www.w3.org/1999/xlink" x="0px" y="0px"
	 viewBox="0 0 300 200" style="enable-background:new 0 0 300 200;" xml:space="preserve">
<style type="text/css">
	.st0{fill:none;stroke:#68F3CA;stroke-width:1.1249;stroke-miterlimit:10;}
	.st1{fill:none;stroke:#68F3CA;stroke-width:0.75;stroke-miterlimit:10;}
	.st2{fill:#68F3CA;}
	.st3{fill:#FFFDEB;}
	.st4{fill:#FF00AA;}
	.st5{fill:#231618;}
	.st6{fill:#B3B1A5;}
	.st7{fill:#48A88C;}
	.st8{fill:#5AD1AE;}
</style>
<circle class="st0" cx="149.7" cy="82.2" r="66.6"/>
<ellipse transform="matrix(1.554471e-02 -0.9999 0.9999 1.554471e-02 65.171 230.5448)" class="st1" cx="149.7" cy="82.2" rx="68.8" ry="68.8"/>
<g>
	<g>
		<path class="st2" d="M145.4,16.5c0.9,2.1,2.8,6.2,2.8,6.2l2.3,0c0,0,1.8-4.1,2.8-6.1c0.1-0.4-0.1-0.8-0.3-0.8l-7.2,0
			C145.5,15.8,145.3,16.2,145.4,16.5z"/>
	</g>
	<g>
		<path class="st2" d="M125.3,21c1.5,1.7,4.5,5,4.5,5l2.2-0.7c0,0,0.5-4.4,0.7-6.7c0-0.4-0.3-0.7-0.6-0.6l-6.8,2.2
			C125.1,20.3,125.1,20.7,125.3,21z"/>
	</g>
	<g>
		<path class="st2" d="M107.5,31.6c2,1.1,5.9,3.4,5.9,3.4l1.9-1.4c0,0-0.9-4.4-1.4-6.6c-0.1-0.4-0.5-0.6-0.7-0.4l-5.8,4.2
			C107.1,30.9,107.2,31.3,107.5,31.6z"/>
	</g>
	<g>
		<path class="st2" d="M93.9,47c2.2,0.5,6.6,1.4,6.6,1.4l1.4-1.9c0,0-2.2-3.9-3.3-5.8c-0.2-0.3-0.7-0.4-0.8-0.2l-4.2,5.8
			C93.3,46.5,93.6,46.9,93.9,47z"/>
	</g>
	<g>
		<path class="st2" d="M85.7,66c2.2-0.2,6.7-0.7,6.7-0.7l0.7-2.2c0,0-3.3-3-5-4.5c-0.3-0.2-0.7-0.2-0.8,0.1l-2.3,6.8
			C85,65.7,85.4,66,85.7,66z"/>
	</g>
	<g>
		<path class="st2" d="M83.8,86.5c2.1-0.9,6.2-2.8,6.2-2.8l0-2.3c0,0-4.1-1.8-6.1-2.8c-0.4-0.1-0.8,0.1-0.8,0.3l0,7.2
			C83.1,86.4,83.5,86.6,83.8,86.5z"/>
	</g>
	<g>
		<path class="st2" d="M88.3,106.6c1.7-1.5,5-4.5,5-4.5l-0.7-2.2c0,0-4.4-0.5-6.7-0.7c-0.4,0-0.7,0.3-0.6,0.6l2.2,6.8
			C87.6,106.8,88,106.8,88.3,106.6z"/>
	</g>
	<g>
		<path class="st2" d="M98.8,124.3c1.1-2,3.4-5.9,3.4-5.9l-1.4-1.9c0,0-4.4,0.9-6.6,1.4c-0.4,0.1-0.6,0.5-0.4,0.7l4.2,5.8
			C98.2,124.7,98.6,124.6,98.8,124.3z"/>
	</g>
	<g>
		<path class="st2" d="M114.3,138c0.5-2.2,1.4-6.6,1.4-6.6l-1.9-1.4c0,0-3.9,2.2-5.8,3.3c-0.3,0.2-0.4,0.7-0.2,0.8l5.8,4.2
			C113.8,138.5,114.2,138.3,114.3,138z"/>
	</g>
	<g>
		<path class="st2" d="M133.2,146.1c-0.2-2.2-0.7-6.7-0.7-6.7l-2.2-0.7c0,0-3,3.3-4.5,5c-0.2,0.3-0.2,0.7,0.1,0.8l6.8,2.3
			C132.9,146.8,133.2,146.5,133.2,146.1z"/>
	</g>
	<g>
		<path class="st2" d="M153.8,148.1c-0.9-2.1-2.8-6.2-2.8-6.2l-2.3,0c0,0-1.8,4.1-2.8,6.1c-0.1,0.4,0.1,0.8,0.3,0.8l7.2,0
			C153.7,148.8,153.9,148.4,153.8,148.1z"/>
	</g>
	<g>
		<path class="st2" d="M173.9,143.5c-1.5-1.7-4.5-5-4.5-5l-2.2,0.7c0,0-0.5,4.4-0.7,6.7c0,0.4,0.3,0.7,0.6,0.6l6.8-2.2
			C174.1,144.3,174.1,143.8,173.9,143.5z"/>
	</g>
	<g>
		<path class="st2" d="M191.6,133c-2-1.1-5.9-3.4-5.9-3.4l-1.9,1.4c0,0,0.9,4.4,1.4,6.6c0.1,0.4,0.5,0.6,0.7,0.4l5.8-4.2
			C192,133.7,191.9,133.3,191.6,133z"/>
	</g>
	<g>
		<path class="st2" d="M205.2,117.6c-2.2-0.5-6.6-1.4-6.6-1.4l-1.4,1.9c0,0,2.2,3.9,3.3,5.8c0.2,0.3,0.7,0.4,0.8,0.2l4.2-5.8
			C205.8,118.1,205.6,117.7,205.2,117.6z"/>
	</g>
	<g>
		<path class="st2" d="M213.4,98.6c-2.2,0.2-6.7,0.7-6.7,0.7l-0.7,2.2c0,0,3.3,3,5,4.5c0.3,0.2,0.7,0.2,0.8-0.1l2.3-6.8
			C214.1,98.9,213.8,98.6,213.4,98.6z"/>
	</g>
	<g>
		<path class="st2" d="M215.3,78.1c-2.1,0.9-6.2,2.8-6.2,2.8l0,2.3c0,0,4.1,1.8,6.1,2.8c0.4,0.1,0.8-0.1,0.8-0.3l0-7.2
			C216.1,78.2,215.7,78,215.3,78.1z"/>
	</g>
	<g>
		<path class="st2" d="M210.8,58c-1.7,1.5-5,4.5-5,4.5l0.7,2.2c0,0,4.4,0.5,6.7,0.7c0.4,0,0.7-0.3,0.6-0.6l-2.2-6.8
			C211.6,57.8,211.1,57.8,210.8,58z"/>
	</g>
	<g>
		<path class="st2" d="M200.3,40.2c-1.1,2-3.4,5.9-3.4,5.9l1.4,1.9c0,0,4.4-0.9,6.6-1.4c0.4-0.1,0.6-0.5,0.4-0.7l-4.2-5.8
			C201,39.9,200.5,39.9,200.3,40.2z"/>
	</g>
	<g>
		<path class="st2" d="M184.8,26.6c-0.5,2.2-1.4,6.6-1.4,6.6l1.9,1.4c0,0,3.9-2.2,5.8-3.3c0.3-0.2,0.4-0.7,0.2-0.8l-5.8-4.2
			C185.3,26.1,185,26.3,184.8,26.6z"/>
	</g>
	<g>
		<path class="st2" d="M165.9,18.5c0.2,2.2,0.7,6.7,0.7,6.7l2.2,0.7c0,0,3-3.3,4.5-5c0.2-0.3,0.2-0.7-0.1-0.8l-6.8-2.3
			C166.2,17.8,165.9,18.1,165.9,18.5z"/>
	</g>
	<g>
		<path class="st2" d="M145.4,16.5c0.9,2.1,2.8,6.2,2.8,6.2l2.3,0c0,0,1.8-4.1,2.8-6.1c0.1-0.4-0.1-0.8-0.3-0.8l-7.2,0
			C145.5,15.8,145.3,16.2,145.4,16.5z"/>
	</g>
</g>
<g>
	<g>
		<path class="st3" d="M112.6,172.1c0,0,0.2-0.1,0.3-0.2c0.2-0.1,0.4-0.2,0.6-0.4c0.2-0.1,0.4-0.2,0.6-0.3s0.3-0.1,0.4-0.1
			c0.1-0.1,0.2-0.1,0.3-0.2c0.1-0.1,0.2-0.1,0.3-0.1c0.3-0.2,0.6-0.4,0.9-0.5c0.3-0.1,0.7-0.2,1-0.4c0.4,0,0.9-0.1,1.4-0.2
			c0.5-0.1,1-0.1,1.5,0.1c0.2,0.2,0.4,0.3,0.6,0.3c0.2,0,0.4,0.2,0.5,0.4c0,0.2,0.1,0.4,0.1,0.4c0.1,0.1,0.1,0.2,0.1,0.2
			c0,0.3,0,0.5,0,0.6c0,0.1,0,0.2,0,0.3c-0.1,0.3-0.1,0.5-0.2,0.7s-0.1,0.3-0.1,0.4c-0.3,0.5-0.5,1-0.9,1.4
			c-0.1,0.1-0.2,0.2-0.3,0.3c-0.1,0.1-0.2,0.2-0.3,0.3c-0.2,0.1-0.4,0.2-0.5,0.4c-0.1,0.1-0.2,0.2-0.3,0.2c-0.3,0.2-0.6,0.3-0.8,0.4
			c-0.2,0-0.4,0.1-0.7,0.1c-0.2,0.1-0.5,0.1-0.7,0c-0.1,0-0.2,0-0.3,0.1c-0.1,0-0.2,0-0.3,0c-0.3,0.1-0.5,0.1-0.7,0.1
			c-0.2,0-0.5,0-0.7,0c-0.1,0-0.3,0-0.5,0.1c-0.2,0-0.3,0.1-0.5,0.1c-0.1,0-0.3,0-0.5-0.1c-0.2,0-0.3,0-0.4,0c0,0.3,0,0.5-0.2,0.8
			c-0.1,0.3-0.2,0.5-0.1,0.8c0.2,0.2,0.5,0.3,0.8,0.4c0.3,0.1,0.6,0.2,0.9,0.3c0.1,0,0.2,0,0.4,0s0.3,0,0.4,0c0.2,0,0.5,0.1,0.7,0.1
			c0.2,0,0.4,0,0.6,0c0.7,0,1.3-0.1,2-0.2c0.7-0.1,1.3-0.3,1.8-0.6c0.3-0.1,0.6-0.2,1-0.4c0.4-0.2,0.7-0.4,1-0.5
			c0.4-0.2,0.8-0.4,1.1-0.5c0.3-0.1,0.5-0.1,0.7,0c0.2,0.1,0.3,0.2,0.4,0.5c0.1,0.2,0,0.4-0.3,0.6c-0.2,0-0.5,0.2-0.8,0.3
			c-0.3,0.2-0.6,0.2-0.9,0.3c-0.2,0.1-0.5,0.2-0.9,0.4c-0.4,0.2-0.7,0.4-0.9,0.5c-0.1,0.1-0.2,0.1-0.4,0.2c-0.2,0.1-0.3,0.1-0.4,0.2
			c-0.4,0.1-0.7,0.3-1.1,0.3c-0.1-0.1-0.2-0.1-0.3,0c-0.1,0.1-0.2,0.1-0.3,0.2c-0.1,0-0.2,0-0.2,0c-0.1,0-0.2,0-0.2,0.1
			c-0.2,0.1-0.4,0.2-0.7,0.2c-0.2,0.1-0.5,0.1-0.7,0.1c-0.5,0.1-1,0.2-1.4,0.2c-0.5,0-0.9,0.1-1.4,0.2c-0.1,0-0.2,0-0.3-0.1
			c-0.1,0-0.2,0-0.3-0.1c-0.1,0-0.2,0-0.3-0.1s-0.2-0.1-0.4-0.2c-0.3-0.2-0.6-0.5-0.8-0.7c-0.2-0.2-0.4-0.5-0.5-0.9
			c-0.1-0.2-0.2-0.3-0.3-0.5c-0.1-0.2-0.2-0.3-0.2-0.4c0-0.1,0-0.3,0-0.6c0-0.2,0-0.5,0-0.8c0-0.3,0.1-0.5,0.1-0.8
			c0-0.3,0.1-0.4,0.1-0.6c0.1-0.1,0.2-0.2,0.3-0.4c0.1-0.2,0.3-0.4,0.4-0.6c0.1-0.2,0.3-0.4,0.4-0.6c0.1-0.2,0.2-0.3,0.2-0.4
			c0,0,0.1-0.1,0.2-0.2c0.1-0.1,0.3-0.3,0.4-0.4c0.2-0.1,0.3-0.3,0.4-0.4S112.6,172.2,112.6,172.1z M118.2,172
			c-0.2,0.1-0.4,0.2-0.6,0.4c-0.2,0.1-0.4,0.2-0.6,0.3c-0.2,0.2-0.4,0.3-0.6,0.5c-0.2,0.1-0.4,0.2-0.7,0.3c-0.1,0.1-0.3,0.2-0.4,0.3
			s-0.3,0.1-0.4,0.2c-0.1,0.1-0.2,0.2-0.3,0.2c-0.1,0.1-0.2,0.1-0.3,0.2s-0.2,0.2-0.3,0.3c-0.1,0.1-0.1,0.2-0.1,0.4
			c0.2,0.1,0.4,0.2,0.7,0.1c0.3,0,0.5,0,0.7-0.1c0.2,0,0.4-0.1,0.6-0.1c0.2,0,0.4,0,0.6-0.1l1.1-0.5c0.2-0.1,0.4-0.2,0.5-0.3
			c0.2-0.1,0.3-0.2,0.5-0.3c0.1-0.2,0.3-0.4,0.5-0.5c0.2-0.2,0.3-0.4,0.4-0.6c0-0.1,0-0.2,0-0.4s0-0.2,0-0.3
			c-0.2-0.1-0.4-0.1-0.5-0.1C118.5,172,118.3,172,118.2,172z"/>
		<path class="st3" d="M136.3,178.6c0.2,0.3,0.2,0.5,0.2,0.6c0,0.1-0.1,0.2-0.1,0.3c-0.1,0.1-0.2,0.2-0.3,0.3s-0.2,0.2-0.4,0.3
			c-0.1,0.1-0.2,0.1-0.4,0.1c-0.1,0-0.2,0.1-0.3,0.1c-0.1,0-0.2,0-0.3,0.1s-0.2,0-0.4,0c-0.6,0.4-1.1,0.7-1.6,0.9
			c-0.5,0.2-0.9,0.4-1.4,0.6c-0.4,0.2-0.8,0.4-1.2,0.5c-0.4,0.2-0.8,0.3-1.2,0.5c-0.1,0.1-0.2,0.2-0.3,0.2c-0.1,0.1-0.2,0.1-0.4,0.2
			c-0.3,0.2-0.6,0.4-0.9,0.5c-0.3,0.1-0.6,0.3-0.9,0.4c-0.3,0.1-0.5,0.2-0.8,0.2c-0.3,0-0.5,0-0.8,0.1c-0.4,0.1-0.7,0-0.9-0.1
			c-0.2,0-0.4,0-0.6,0s-0.4-0.1-0.6-0.2c-0.1,0-0.1-0.1-0.2-0.1c-0.1-0.1-0.1-0.1-0.2-0.2c-0.2-0.1-0.3-0.3-0.4-0.4
			c-0.1-0.1-0.2-0.2-0.2-0.3c0-0.1-0.1-0.2-0.2-0.3c-0.1-0.1-0.1-0.2-0.1-0.3c-0.1-0.2-0.1-0.4-0.1-0.7s0-0.5,0-0.7
			c0-0.2,0-0.5,0-0.7c0-0.2,0-0.5,0.1-0.7c0.1-0.2,0.1-0.3,0.2-0.5c0.1-0.1,0.2-0.3,0.2-0.5c0.2-0.3,0.4-0.5,0.5-0.7
			c0.1-0.2,0.3-0.4,0.4-0.7c0.1-0.1,0.2-0.2,0.3-0.2c0.1,0,0.2-0.1,0.3-0.2c0.1,0,0.1-0.1,0.1-0.2c0-0.1,0.1-0.1,0.1-0.2
			c0.2-0.1,0.4-0.3,0.7-0.5c0.2-0.2,0.4-0.3,0.6-0.5c0.1-0.1,0.3-0.2,0.4-0.3c0.1-0.1,0.3-0.2,0.4-0.3c0.2-0.1,0.3-0.2,0.3-0.2
			c0.1,0,0.1-0.1,0.2-0.1c0.2-0.1,0.3-0.2,0.4-0.3c0.1-0.1,0.3-0.2,0.4-0.4c0.2-0.1,0.4-0.2,0.6-0.4s0.4-0.2,0.6-0.3
			c0.2-0.1,0.4-0.1,0.6-0.2c0.2,0,0.5-0.1,0.7-0.1c0.1,0,0.2,0,0.3-0.1s0.2-0.1,0.3-0.1c0.1,0,0.3,0,0.4,0c0.1,0,0.2,0,0.3-0.1
			c0.1,0,0.2,0.1,0.4,0s0.2-0.1,0.3-0.1c0.1,0,0.2,0,0.3,0.1s0.2,0,0.2,0c0.1,0.1,0.1,0.1,0.2,0.1c0.1,0,0.1,0,0.2,0.1
			c0.1,0,0.1,0.1,0.2,0.2s0.1,0.2,0.1,0.3c0,0.3-0.2,0.6-0.5,0.9c-0.3,0.3-0.5,0.5-0.7,0.6c-0.1,0.1-0.3,0.3-0.4,0.3
			c-0.2,0.1-0.3,0.2-0.5,0.2c-0.2-0.1-0.5-0.1-0.8-0.1c-0.3,0-0.5-0.1-0.7-0.2c-0.1,0.1-0.1,0.1-0.2,0.1c-0.1,0-0.1,0.1-0.1,0.2
			c-0.8,0.4-1.6,0.9-2.3,1.5c-0.7,0.6-1.3,1.3-1.8,2.1c-0.2,0.3-0.3,0.6-0.5,0.7c-0.1,0.1-0.2,0.3-0.3,0.4c0,0.5,0.2,0.9,0.4,1.2
			c0.2,0.4,0.5,0.6,0.8,0.7c0.3,0.1,0.6,0.1,0.9,0s0.6-0.2,0.8-0.3c0.3-0.1,0.7-0.3,1-0.4c0.3-0.1,0.7-0.2,1-0.3
			c0.1,0,0.2-0.1,0.3-0.1c0.1,0,0.2-0.1,0.3-0.1c0.3-0.1,0.6-0.3,0.9-0.4s0.5-0.2,0.8-0.4c0.1,0,0.2,0,0.3-0.1s0.1,0,0.3,0
			c0.4-0.2,0.9-0.5,1.4-0.6s1-0.3,1.6-0.5c0.2-0.1,0.4-0.2,0.5-0.3c0.2-0.1,0.4-0.2,0.5-0.3c0.1,0,0.3,0,0.3,0
			S136.2,178.5,136.3,178.6z"/>
		<path class="st3" d="M148.2,179.5c0.2,0.3,0.3,0.5,0.2,0.6c0,0.1,0,0.2,0,0.3c-0.1,0.1-0.2,0.2-0.3,0.4c-0.1,0.1-0.2,0.2-0.3,0.3
			c-0.1,0.1-0.2,0.1-0.4,0.1s-0.2,0.1-0.3,0.2c-0.1,0-0.2,0.1-0.3,0.1c-0.1,0.1-0.2,0.1-0.4,0c-0.6,0.5-1,0.8-1.5,1.1
			c-0.4,0.3-0.9,0.5-1.3,0.8c-0.3,0.2-0.7,0.5-1.1,0.7c-0.4,0.2-0.8,0.4-1.1,0.6c-0.1,0.1-0.2,0.2-0.3,0.3c-0.1,0.1-0.2,0.2-0.3,0.2
			c-0.3,0.2-0.6,0.4-0.8,0.6c-0.3,0.2-0.6,0.4-0.8,0.5c-0.2,0.1-0.5,0.2-0.8,0.3c-0.3,0-0.5,0.1-0.8,0.2c-0.4,0.1-0.7,0.1-0.9,0
			c-0.2,0-0.4,0-0.6,0.1s-0.4,0-0.6-0.1c-0.1,0-0.1-0.1-0.2-0.1c-0.1,0-0.1-0.1-0.2-0.1c-0.2-0.1-0.4-0.2-0.5-0.3
			c-0.1-0.1-0.2-0.2-0.3-0.3c-0.1-0.1-0.1-0.2-0.2-0.3c-0.1-0.1-0.1-0.2-0.2-0.3c-0.1-0.2-0.1-0.4-0.1-0.6c0-0.2,0-0.5-0.1-0.7
			c0-0.2-0.1-0.5-0.1-0.7c-0.1-0.2-0.1-0.5,0-0.7c0-0.2,0.1-0.3,0.2-0.5c0.1-0.2,0.1-0.3,0.2-0.5c0.2-0.3,0.3-0.5,0.4-0.8
			s0.2-0.5,0.4-0.7c0.1-0.1,0.2-0.2,0.2-0.2c0.1-0.1,0.2-0.1,0.2-0.2c0,0,0.1-0.1,0.1-0.2c0-0.1,0.1-0.2,0.1-0.2
			c0.2-0.2,0.4-0.4,0.6-0.5c0.2-0.2,0.4-0.4,0.6-0.6c0.1-0.1,0.2-0.3,0.4-0.4c0.1-0.1,0.3-0.2,0.4-0.4c0.1-0.2,0.2-0.2,0.3-0.3
			c0.1,0,0.1-0.1,0.2-0.1c0.1-0.1,0.3-0.2,0.4-0.4c0.1-0.1,0.2-0.3,0.4-0.4c0.2-0.1,0.3-0.3,0.5-0.4s0.4-0.3,0.5-0.4
			c0.2-0.1,0.4-0.2,0.6-0.2c0.2-0.1,0.4-0.1,0.7-0.2c0.1,0,0.2-0.1,0.3-0.1s0.2-0.1,0.3-0.1c0.1,0,0.3-0.1,0.4-0.1
			c0.1,0,0.2-0.1,0.3-0.1c0.1,0,0.2,0,0.4,0c0.1-0.1,0.2-0.1,0.3-0.1c0.1,0,0.2,0,0.3,0c0.1,0,0.2,0,0.2,0c0.1,0,0.1,0.1,0.2,0.1
			c0.1,0,0.1,0,0.2,0.1c0.1,0,0.2,0.1,0.2,0.2c0.1,0.1,0.1,0.2,0.1,0.3c0,0.3-0.1,0.6-0.3,1c-0.2,0.3-0.4,0.6-0.6,0.7
			c-0.1,0.2-0.3,0.3-0.4,0.4c-0.1,0.1-0.3,0.2-0.5,0.3c-0.3,0-0.5,0-0.8,0c-0.3,0-0.5,0-0.7-0.1c-0.1,0.1-0.1,0.1-0.2,0.2
			c-0.1,0-0.1,0.1-0.1,0.2c-0.8,0.5-1.5,1.1-2.1,1.8c-0.6,0.6-1.1,1.4-1.5,2.3c-0.1,0.4-0.3,0.6-0.4,0.7c-0.1,0.1-0.2,0.3-0.2,0.5
			c0.1,0.5,0.3,0.9,0.5,1.2c0.3,0.3,0.5,0.5,0.8,0.6c0.3,0.1,0.6,0,0.9-0.1c0.3-0.1,0.5-0.3,0.8-0.4c0.3-0.2,0.6-0.3,0.9-0.5
			c0.3-0.1,0.6-0.3,1-0.5c0.1,0,0.2-0.1,0.3-0.1c0.1,0,0.2-0.1,0.3-0.2c0.3-0.2,0.6-0.3,0.8-0.5c0.2-0.2,0.5-0.3,0.7-0.5
			c0.1,0,0.2,0,0.2-0.1c0.1,0,0.1-0.1,0.2-0.1c0.4-0.3,0.9-0.6,1.3-0.8c0.5-0.2,1-0.4,1.5-0.7c0.2-0.1,0.3-0.3,0.5-0.4
			c0.2-0.1,0.3-0.2,0.5-0.4c0.1,0,0.3,0,0.3-0.1C148,179.5,148.1,179.5,148.2,179.5z"/>
		<path class="st3" d="M147.1,179.5c0,0,0.1-0.1,0.3-0.3c0.1-0.2,0.3-0.3,0.4-0.6s0.3-0.4,0.5-0.6c0.1-0.2,0.2-0.3,0.3-0.3
			c0.1-0.1,0.1-0.2,0.2-0.3c0.1-0.1,0.1-0.1,0.2-0.2c0.2-0.3,0.4-0.6,0.7-0.8c0.3-0.2,0.5-0.5,0.8-0.7c0.4-0.2,0.8-0.4,1.2-0.7
			c0.4-0.3,0.9-0.4,1.4-0.5c0.2,0.1,0.5,0.1,0.7,0.1c0.2,0,0.4,0,0.6,0.1c0.1,0.2,0.2,0.3,0.3,0.4c0.1,0.1,0.2,0.1,0.2,0.2
			c0.1,0.3,0.2,0.4,0.2,0.5c0,0.1,0.1,0.2,0.1,0.3c0,0.3,0.1,0.5,0.1,0.7c0,0.1,0,0.3,0,0.4c0,0.6-0.1,1.1-0.3,1.6
			c0,0.1-0.1,0.3-0.1,0.4s-0.1,0.3-0.2,0.4c-0.1,0.2-0.3,0.4-0.3,0.5s-0.1,0.3-0.2,0.3c-0.2,0.3-0.5,0.5-0.7,0.7
			c-0.2,0.1-0.4,0.2-0.6,0.4s-0.4,0.2-0.6,0.3c-0.1,0.1-0.2,0.1-0.3,0.2c-0.1,0.1-0.2,0.1-0.3,0.1c-0.2,0.2-0.4,0.3-0.6,0.4
			s-0.4,0.2-0.7,0.3c-0.1,0-0.3,0.1-0.4,0.2c-0.1,0.1-0.3,0.2-0.4,0.3c-0.1,0-0.3,0.1-0.5,0.1c-0.2,0-0.3,0.1-0.4,0.1
			c0.1,0.2,0.2,0.5,0.1,0.8s0,0.6,0.2,0.8c0.3,0.1,0.6,0.1,0.9,0.1c0.3,0,0.6,0,0.9,0c0.1,0,0.2-0.1,0.3-0.1
			c0.1-0.1,0.3-0.1,0.4-0.1c0.2,0,0.5-0.1,0.7-0.2c0.2-0.1,0.4-0.2,0.6-0.3c0.6-0.2,1.2-0.5,1.8-0.9c0.6-0.4,1.1-0.8,1.5-1.2
			c0.3-0.2,0.5-0.4,0.8-0.7c0.3-0.3,0.5-0.6,0.7-0.8c0.3-0.3,0.6-0.6,0.8-0.8c0.2-0.2,0.5-0.3,0.7-0.3c0.2,0,0.3,0.1,0.5,0.3
			c0.2,0.2,0.2,0.4,0,0.7c-0.2,0.1-0.4,0.3-0.7,0.6c-0.2,0.3-0.5,0.4-0.7,0.6c-0.2,0.1-0.4,0.4-0.7,0.7c-0.3,0.3-0.5,0.6-0.7,0.8
			c-0.1,0.1-0.2,0.2-0.3,0.3c-0.1,0.1-0.2,0.2-0.3,0.3c-0.3,0.3-0.6,0.5-0.9,0.7c-0.1,0-0.2,0-0.3,0.1c-0.1,0.1-0.1,0.2-0.2,0.3
			c-0.1,0-0.1,0.1-0.2,0.1c-0.1,0-0.1,0.1-0.2,0.1c-0.2,0.2-0.3,0.3-0.5,0.5c-0.2,0.2-0.4,0.3-0.6,0.4c-0.4,0.3-0.8,0.5-1.3,0.7
			c-0.4,0.2-0.8,0.4-1.2,0.7c-0.1,0-0.2,0-0.4,0.1c-0.1,0-0.2,0-0.3,0.1c-0.1,0-0.2,0.1-0.3,0.1c-0.1,0-0.2,0-0.4-0.1
			c-0.4-0.1-0.7-0.2-1-0.4c-0.3-0.1-0.5-0.3-0.8-0.6c-0.1-0.1-0.3-0.2-0.4-0.3c-0.2-0.1-0.3-0.2-0.4-0.3c-0.1-0.1-0.1-0.3-0.2-0.5
			c-0.1-0.2-0.2-0.5-0.2-0.7s-0.1-0.5-0.2-0.8c0-0.3-0.1-0.4-0.1-0.6c0-0.1,0.1-0.2,0.1-0.5c0-0.2,0.1-0.4,0.1-0.7
			c0-0.2,0.1-0.5,0.1-0.7c0-0.2,0-0.4,0-0.4c0,0,0.1-0.1,0.2-0.3c0.1-0.2,0.2-0.3,0.3-0.5s0.2-0.4,0.2-0.5
			C147.1,179.7,147.1,179.6,147.1,179.5z M152.2,177.4c-0.1,0.2-0.3,0.4-0.4,0.6c-0.1,0.2-0.3,0.3-0.5,0.5c-0.1,0.2-0.3,0.5-0.4,0.6
			c-0.2,0.2-0.3,0.4-0.5,0.6c-0.1,0.2-0.2,0.3-0.3,0.4c-0.1,0.1-0.2,0.2-0.3,0.3c-0.1,0.1-0.1,0.2-0.2,0.3c-0.1,0.1-0.2,0.2-0.2,0.3
			c-0.1,0.1-0.1,0.2-0.2,0.4c0,0.1,0,0.3,0,0.4c0.2,0,0.5,0,0.7-0.1c0.2-0.1,0.4-0.2,0.6-0.3c0.2-0.1,0.3-0.2,0.5-0.3
			s0.3-0.2,0.5-0.3l0.8-0.9c0.1-0.1,0.3-0.3,0.4-0.4c0.1-0.2,0.2-0.3,0.3-0.5c0-0.2,0.1-0.4,0.2-0.7c0.1-0.2,0.2-0.4,0.1-0.7
			c0-0.1-0.1-0.2-0.1-0.3c-0.1-0.1-0.1-0.2-0.1-0.3c-0.2,0-0.4,0-0.5,0.1C152.5,177.3,152.3,177.3,152.2,177.4z"/>
		<path class="st3" d="M161.5,182c0.2-0.1,0.3-0.3,0.3-0.5c0.1-0.2,0.2-0.4,0.3-0.6c0.2-0.4,0.5-0.7,0.8-0.9
			c0.1-0.2,0.3-0.4,0.5-0.6c0.2-0.2,0.3-0.4,0.4-0.6c0-0.1,0.1-0.1,0.1-0.2s0-0.1,0.1-0.2c0.3-0.6,0.6-1.1,1.1-1.6
			c0.1-0.1,0.2-0.3,0.3-0.4c0.1-0.1,0.2-0.3,0.4-0.4c0.2-0.1,0.3-0.3,0.5-0.5c0.2-0.2,0.3-0.4,0.5-0.5c0.1-0.1,0.3-0.2,0.4-0.2
			c0.1-0.1,0.3-0.1,0.4-0.2s0.3-0.1,0.4-0.2s0.2-0.1,0.4,0c0.4,0.1,0.7,0.3,0.9,0.7c0.1,0.1,0.1,0.3,0.1,0.7c0,0.4,0,0.8-0.1,1.2
			c0,0.4-0.1,0.8-0.2,1.2s-0.1,0.7-0.1,0.9c0,0.2,0,0.3,0,0.3s0,0,0,0.1c0,0.1,0,0.2,0,0.3s0,0.2,0,0.3c0,0.2,0,0.4,0,0.7
			s0.1,0.5,0.1,0.7c0.2-0.1,0.3-0.1,0.4-0.1c0,0,0,0,0.1,0c0.1,0,0.1,0,0.2,0c0.1,0,0.1,0,0.2,0c0.2-0.1,0.4-0.2,0.6-0.4
			s0.3-0.3,0.5-0.5c0.4-0.2,0.7-0.5,1-0.7c0.3-0.3,0.5-0.5,0.6-0.6c0.2-0.1,0.4-0.3,0.7-0.5c0.1-0.2,0.3-0.3,0.5-0.5
			c0.2-0.2,0.4-0.3,0.5-0.5c0,0,0.1-0.1,0.1-0.2c0.1-0.1,0.1-0.1,0.2-0.1c0.1,0.1,0.2,0.2,0.3,0.3s0.1,0.2,0.1,0.2
			c-0.1,0.2-0.2,0.3-0.2,0.4c0,0.1,0,0.2,0,0.2c-0.1,0.1-0.2,0.2-0.4,0.4c-0.2,0.1-0.3,0.2-0.3,0.3c0,0.1-0.1,0.1-0.1,0.2
			c0,0-0.1,0.1-0.2,0.2c-0.1,0.1-0.1,0.1-0.1,0.2c0,0.1-0.1,0.1-0.2,0.1c-0.1,0-0.1,0-0.2,0.1c-0.1,0.1-0.2,0.2-0.3,0.3
			c-0.1,0.1-0.1,0.2-0.2,0.3c-0.1,0.2-0.2,0.3-0.3,0.4c0,0.1-0.1,0.2-0.3,0.4c-0.1,0.1-0.2,0.2-0.3,0.2c-0.1,0.1-0.2,0.2-0.3,0.2
			c-0.3,0.2-0.5,0.4-0.8,0.7s-0.5,0.5-0.8,0.8c-0.2,0.2-0.4,0.3-0.6,0.4s-0.4,0.3-0.6,0.4c-0.1,0-0.1,0-0.2,0c0,0-0.1,0-0.2,0.1
			c-0.1,0-0.2,0-0.3,0c-0.1,0.1-0.2,0.1-0.3,0.1c-0.2-0.1-0.4-0.2-0.5-0.2c-0.1,0-0.1-0.1-0.2-0.1c-0.1-0.1-0.1-0.2-0.1-0.3
			c0-0.1-0.1-0.2-0.1-0.3c-0.1-0.5-0.1-0.9-0.2-1.3s0-0.9,0-1.4c0-0.2,0-0.4,0-0.6s0-0.5,0-0.8c0-0.3,0-0.5,0-0.7
			c0-0.2,0-0.3-0.1-0.3c-0.2,0.2-0.4,0.4-0.6,0.7c-0.2,0.3-0.4,0.5-0.6,0.7c-0.1,0.2-0.3,0.3-0.4,0.4c-0.1,0.1-0.3,0.3-0.4,0.4
			c-0.1,0.1-0.2,0.3-0.3,0.4c-0.1,0.1-0.2,0.3-0.3,0.4c-0.1,0.2-0.2,0.3-0.3,0.5c-0.1,0.2-0.2,0.3-0.4,0.5c-0.1,0.1-0.1,0.2-0.2,0.2
			c-0.1,0.1-0.1,0.1-0.2,0.2c-0.1,0.1-0.2,0.2-0.2,0.3s-0.2,0.2-0.3,0.3c-0.1,0.2-0.2,0.4-0.4,0.6c-0.2,0.2-0.3,0.5-0.5,0.8
			c-0.2,0.3-0.3,0.5-0.5,0.8c-0.2,0.3-0.3,0.5-0.3,0.7c-0.2,0.3-0.5,0.5-0.7,0.7c-0.3,0.2-0.6,0.3-1,0.2c-0.2-0.1-0.4-0.2-0.5-0.2
			c-0.1-0.1-0.2-0.1-0.3-0.2c0-0.2,0-0.5,0-0.7c0-0.2,0-0.4,0.1-0.7c0,0,0-0.1,0.1-0.2c0-0.1,0-0.1,0.1-0.2c0.1-0.2,0.1-0.4,0.1-0.7
			c0-0.2,0-0.5,0.1-0.7c0.1-0.2,0.1-0.4,0.1-0.6c0-0.1,0-0.3,0.1-0.4c0-0.1,0.1-0.2,0.1-0.3c0.1-0.1,0.1-0.2,0.1-0.3
			c0-0.1,0.1-0.2,0.2-0.4c0.1-0.2,0.1-0.3,0.2-0.4c0-0.2,0.1-0.5,0.1-0.7c0-0.2,0.1-0.5,0.2-0.7c0-0.2,0-0.3,0.1-0.4
			c0-0.1,0-0.3,0.1-0.4c0.1-0.2,0.1-0.5,0.2-0.7c0.1-0.2,0.1-0.5,0.2-0.7c0-0.1,0.1-0.3,0.1-0.4s0.1-0.2,0.2-0.3
			c0-0.1,0.1-0.2,0.1-0.3c0-0.1,0.1-0.2,0.1-0.3c0-0.1,0.1-0.2,0.1-0.4c0-0.1,0.1-0.3,0.2-0.4c0.1-0.2,0.2-0.4,0.3-0.5
			c0.1-0.2,0.2-0.3,0.4-0.4c0.1,0,0.2,0,0.3,0c0.1-0.1,0.2-0.1,0.3-0.2c0.1,0,0.2-0.1,0.3-0.1c0.1,0,0.2,0,0.2,0.1
			c0.3,0.1,0.5,0.2,0.7,0.3c0.1,0.1,0.2,0.2,0.3,0.3c0.1,0.2,0.2,0.4,0.1,0.6s-0.2,0.4-0.4,0.6c0,0.4-0.1,0.7-0.3,1.1
			c-0.2,0.4-0.3,0.7-0.4,1c0,0.1,0,0.2-0.1,0.3s0,0.2-0.1,0.3c-0.1,0.3-0.2,0.6-0.2,0.9c-0.1,0.3-0.2,0.6-0.3,0.9
			c-0.1,0.2-0.1,0.3-0.2,0.4c0,0.1-0.1,0.2-0.1,0.3c-0.1,0.1-0.1,0.2-0.1,0.3C161.6,181.7,161.6,181.8,161.5,182z"/>
		<path class="st3" d="M179.5,163.6c0.3,0,0.5-0.1,0.7-0.1c0.2,0,0.4-0.1,0.5-0.1c0.2,0,0.3-0.1,0.5-0.1c0.2-0.1,0.4-0.1,0.6-0.3
			c0.4-0.2,0.8-0.4,1.2-0.5c0.3-0.2,0.7-0.3,1.1-0.5c0.1-0.1,0.2-0.1,0.4-0.1c0.1,0,0.3,0,0.4-0.1c0.3-0.1,0.5-0.2,0.8-0.3
			c0.2-0.1,0.5-0.2,0.7-0.3c0.1,0,0.1-0.1,0.2-0.1s0.1-0.1,0.2-0.1c0.2-0.1,0.4-0.1,0.5-0.2s0.4-0.1,0.5,0c0.1,0.2,0.2,0.3,0.2,0.3
			c0,0,0,0.1,0,0.1c0.1,0.3,0.1,0.4,0,0.4s-0.1,0-0.1,0.1c-0.2,0.1-0.3,0.2-0.4,0.2c-0.1,0.1-0.2,0.2-0.2,0.3
			c-0.3,0.2-0.6,0.3-0.9,0.3c-0.3,0-0.6,0.2-0.9,0.4c-0.1,0.1-0.2,0.2-0.4,0.4s-0.3,0.2-0.6,0.2c-0.2,0.1-0.4,0.1-0.7,0.2
			c-0.3,0.1-0.5,0.2-0.7,0.3c-0.5,0.2-0.8,0.3-1.2,0.5c-0.3,0.1-0.6,0.3-0.9,0.4c-0.3,0.1-0.6,0.2-0.9,0.3c-0.3,0.1-0.7,0.2-1.1,0.4
			c-0.1,0.2-0.2,0.4-0.2,0.6c0,0.2,0,0.4-0.2,0.6c0,0.4-0.1,0.7-0.2,0.9c-0.1,0.2-0.1,0.3-0.1,0.5c-0.2,0.5-0.3,0.9-0.4,1.4
			c-0.1,0.5-0.3,0.9-0.5,1.4c0,0.2,0,0.5,0,0.7c-0.1,0.2-0.1,0.5,0,0.8c-0.1,0.4-0.2,0.8-0.2,1.2c0,0.4,0,0.8,0,1.3
			c0,0.2,0,0.3,0,0.5c0,0.2,0,0.3,0,0.5c0,0.2-0.1,0.4-0.1,0.7c-0.1,0.2-0.1,0.4-0.1,0.7c0,0.1,0,0.1,0,0.2c0,0.1,0,0.1,0,0.2
			c0,0.2,0,0.3-0.1,0.4s0,0.3-0.1,0.4c0,0.1,0,0.2,0,0.3s0,0.2,0,0.3c0,0.1,0,0.1,0,0.2c0,0.1,0,0.1,0,0.2c0,0.3,0.1,0.5,0.2,0.6
			s0.2,0.2,0.2,0.3c0.1,0.1,0.2,0.2,0.2,0.3c0.1,0.1,0.1,0.2,0.2,0.3c0.1,0,0.2,0,0.3,0c0.1,0,0.2,0,0.3,0c0.1,0,0.2-0.1,0.3-0.3
			s0.2-0.3,0.3-0.3c0.1-0.1,0.3-0.1,0.4-0.2c0.1,0,0.2-0.1,0.3-0.2c0.1-0.1,0.2-0.3,0.2-0.4c0-0.1,0.1-0.2,0.3-0.3
			c0.3-0.2,0.5-0.3,0.5-0.4c0-0.1,0.1-0.2,0.1-0.3c0.1-0.1,0.2-0.3,0.3-0.4c0.1-0.1,0.2-0.3,0.3-0.4c0.2-0.2,0.3-0.3,0.3-0.3
			c0,0,0.1-0.1,0.2-0.3c0.2-0.2,0.3-0.3,0.4-0.5s0.2-0.3,0.4-0.5c0.2-0.1,0.3-0.2,0.3-0.3c0,0,0-0.1,0.1-0.1c0,0,0-0.1,0-0.1
			s0.1-0.2,0.2-0.3c0-0.2,0.1-0.3,0.2-0.5c0.1-0.1,0.2-0.3,0.2-0.5c0.1-0.2,0.2-0.3,0.3-0.5s0.2-0.3,0.3-0.4c0-0.1,0.1-0.1,0.1-0.2
			c0-0.1,0.1-0.1,0.2-0.2c0.1-0.1,0.2-0.3,0.2-0.3c0-0.1,0.1-0.2,0.3-0.4c0-0.1,0.1-0.1,0.1-0.2s0.1-0.1,0.1-0.2c0.1,0,0.2,0,0.2,0
			c0.1,0,0.1,0.1,0.2,0c0.1,0.3,0.1,0.4,0.1,0.5c0,0.1,0,0.2,0,0.2c-0.1,0.2-0.2,0.4-0.3,0.4c-0.1,0.1-0.2,0.2-0.2,0.4
			c-0.1,0-0.2,0-0.2,0c-0.1,0-0.1,0.1-0.2,0.2c0.1,0.1,0.1,0.1,0.1,0.2c0,0.1,0.1,0.1,0.1,0.2c-0.3,0.5-0.4,0.9-0.5,1.1
			c-0.2,0.3-0.3,0.5-0.3,0.6c0,0.1-0.1,0.2-0.2,0.3c-0.2,0.3-0.4,0.6-0.4,0.8c-0.1,0.2-0.2,0.5-0.5,0.7c-0.2,0.2-0.3,0.4-0.3,0.5
			c-0.1,0.1-0.1,0.3-0.3,0.4c-0.1,0.1-0.1,0.2-0.1,0.3c0,0.1-0.1,0.2-0.2,0.3c-0.1,0.1-0.2,0.3-0.3,0.4s-0.2,0.3-0.3,0.4
			c-0.3,0.2-0.4,0.5-0.5,0.7c-0.1,0.2-0.2,0.5-0.4,0.7c-0.1,0.2-0.3,0.4-0.6,0.7c-0.3,0.3-0.5,0.5-0.7,0.6c-0.1,0-0.1,0.1-0.1,0.1
			c0,0-0.1,0.1-0.1,0.1c-0.2-0.1-0.4-0.1-0.6-0.2c-0.2-0.1-0.4-0.2-0.5-0.3c-0.2-0.1-0.4-0.1-0.5-0.2c-0.1,0-0.3-0.1-0.4-0.1
			c-0.3-0.3-0.6-0.6-1-0.8c-0.4-0.3-0.7-0.6-1-1c-0.1-0.1-0.1-0.1-0.2-0.2c0-0.1-0.1-0.2-0.1-0.3c-0.1-0.1-0.2-0.3-0.3-0.4
			c-0.1-0.1-0.1-0.3-0.2-0.4c0-0.1-0.1-0.3-0.1-0.4c0-0.2,0-0.3,0-0.5c0-0.3,0-0.6,0.1-0.9c0-0.3,0-0.6,0-0.9c0-0.2,0-0.5,0-0.7
			c0-0.2,0-0.4,0-0.7c0-0.1,0-0.2,0-0.3c0-0.1,0-0.2,0.1-0.2c0-0.4,0-0.9,0-1.3c0.1-0.4,0.1-0.9,0.2-1.3c0.1-0.5,0.2-1,0.2-1.5
			c0.1-0.5,0.1-1,0.2-1.5c-0.1-0.2,0-0.5,0.1-0.7c0-0.2,0-0.5,0-0.7s0.1-0.5,0.1-0.8c-0.2,0-0.5,0.1-0.8,0.2
			c-0.3,0.1-0.5,0.3-0.7,0.4c-0.4,0.1-0.7,0.3-1.2,0.4c-0.1,0-0.3,0-0.4,0.1c-0.1,0-0.3,0-0.4,0.1c-0.2,0.1-0.3,0.1-0.4,0.1
			s-0.2,0-0.3,0.1c-0.3-0.1-0.6-0.2-0.7-0.3c-0.1,0-0.3-0.1-0.4-0.1c-0.1,0-0.3-0.1-0.4-0.1s-0.2-0.2-0.4-0.3c0-0.1,0-0.1,0-0.2
			c0-0.1,0.1-0.1,0.1-0.2c0.2-0.1,0.3-0.2,0.5-0.2c0.2-0.1,0.4-0.1,0.5-0.3c0.3-0.1,0.6-0.2,0.9-0.3c0.2-0.2,0.5-0.3,0.8-0.4
			c0.1,0,0.1,0,0.2,0c0.1,0,0.1,0,0.2,0c0.1,0,0.2,0,0.3-0.1c0.1,0,0.1-0.1,0.2-0.1c0.1-0.1,0.2-0.1,0.4-0.1s0.3-0.1,0.4-0.1
			c0.3-0.1,0.6-0.2,1-0.2c0.4,0,0.7-0.2,1-0.4c0-0.3,0-0.6,0.1-1c0-0.3,0.1-0.7,0.1-1c0-0.1,0.1-0.3,0.1-0.5s0-0.3,0-0.5
			c0.1-0.2,0.1-0.4,0.1-0.6c0-0.1,0.1-0.3,0.1-0.4c0.1-0.3,0.1-0.6,0.1-0.9c0-0.3,0-0.6,0-1c0.2-0.4,0.3-0.8,0.5-1.3
			c0.1,0,0.3-0.1,0.3-0.2c0.1-0.1,0.2-0.2,0.4-0.1c0,0.1,0.1,0.1,0.1,0.1s0.1,0.1,0.1,0.2c0.1,0.1,0.2,0.1,0.3,0.2
			c0.1,0.1,0.2,0.1,0.2,0.2c0.1,0.2,0.1,0.3,0.1,0.6c0,0.2,0.1,0.4,0.2,0.6c0.1,0.1,0.1,0.2,0.1,0.3c0,0.1,0,0.2,0.1,0.2
			c0.1,0.1,0.2,0.2,0.3,0.3c0.1,0.1,0.2,0.2,0.2,0.4c0,0.1,0,0.1,0,0.2c0,0.1,0,0.2,0,0.3c0,0.3,0,0.6,0,0.7s0,0.3,0,0.4
			c-0.1,0.2-0.1,0.3-0.1,0.4c0,0.1,0,0.1,0,0.1c0,0.1,0,0.3-0.1,0.5C179.5,163.4,179.5,163.5,179.5,163.6z"/>
		<path class="st3" d="M193.9,173.8c0-0.1,0.1-0.2,0.1-0.3s0.1-0.1,0.1-0.2c0-0.4,0-0.7,0.1-0.9c0.1-0.3,0.2-0.5,0.3-0.8
			c0.1-0.2,0.2-0.5,0.4-0.7c0.1-0.2,0.3-0.5,0.4-0.8c0.1,0,0.2-0.1,0.2-0.2c0-0.1,0.1-0.2,0.2-0.3c0.1-0.2,0.2-0.3,0.2-0.4
			c0.1-0.1,0.1-0.2,0.1-0.3c0.2-0.2,0.3-0.5,0.4-0.7s0.2-0.5,0.4-0.8c0.2-0.1,0.3-0.2,0.5-0.2c0.1,0.1,0.3,0.3,0.3,0.5
			c0.1,0.2,0,0.3-0.2,0.4c0,0.1-0.1,0.2-0.1,0.3c0,0.1-0.1,0.2-0.2,0.2c-0.1,0.1-0.2,0.1-0.2,0.2c0,0.1-0.1,0.1-0.1,0.2
			c0.1,0.2,0.1,0.3,0.1,0.4c0,0,0,0.1,0,0.1c0,0.2-0.1,0.5-0.1,0.7c-0.1,0.2-0.1,0.4-0.2,0.6c-0.1,0.2-0.1,0.4-0.2,0.6
			s-0.1,0.4-0.1,0.7c-0.1,0.1-0.1,0.3-0.1,0.4c-0.3,0.4-0.4,0.6-0.6,0.8c-0.1,0.2-0.2,0.4-0.3,0.6c-0.1,0.1-0.1,0.2-0.1,0.3
			c0,0,0,0.1,0,0.1c-0.1,0.2-0.2,0.4-0.2,0.5s0,0.2,0,0.2c-0.1,0.2-0.2,0.4-0.3,0.6c0,0.2-0.1,0.3-0.3,0.4c-0.1,0.2-0.2,0.3-0.3,0.6
			c-0.2,0.2-0.3,0.5-0.5,0.7c-0.2,0.2-0.4,0.4-0.6,0.6c-0.2,0.2-0.4,0.2-0.6,0.2c-0.1,0-0.2,0-0.3-0.1c-0.1,0-0.2,0-0.3,0
			c-0.2-0.1-0.4-0.2-0.6-0.2c-0.2,0-0.4-0.1-0.6-0.2c-0.2-0.1-0.4-0.3-0.6-0.5s-0.3-0.4-0.5-0.6c-0.1-0.2-0.2-0.5-0.3-0.7
			c-0.1-0.2-0.1-0.4-0.1-0.6c-0.1-0.8-0.1-1.4,0-2.1c0.1-0.6,0-1.3-0.1-1.9c-0.3-0.1-0.5-0.3-0.6-0.4c-0.1-0.2-0.3-0.4-0.5-0.7
			c-0.4,0.6-0.6,1.2-0.8,1.9c-0.2,0.7-0.3,1.4-0.4,2.1c0,0.3,0,0.6-0.1,0.8s0,0.5-0.1,0.7c-0.1,0.1-0.1,0.2-0.1,0.3c0,0,0,0.1,0,0.1
			c-0.1,0.3-0.1,0.4-0.1,0.5c0,0.1,0,0.2,0,0.3c0,0.1,0,0.2-0.1,0.2c0,0.1-0.1,0.2-0.1,0.2c-0.1,0.5-0.2,1-0.2,1.4
			c-0.1,0.4-0.1,0.9-0.2,1.3c0,0.2,0,0.4,0,0.6c0,0.2,0,0.4-0.1,0.6c-0.2,0.1-0.3,0.1-0.4,0.1c-0.1-0.1-0.1-0.1-0.1-0.2
			c-0.2,0-0.3-0.1-0.4-0.2c-0.1-0.1-0.3-0.3-0.4-0.5c-0.1-0.2-0.2-0.4-0.2-0.6c-0.1-0.2-0.1-0.4-0.1-0.5c-0.1-0.1-0.2-0.2-0.2-0.3
			c0,0,0-0.1,0-0.1c0.1-0.5,0.2-0.9,0.3-1.4c0.1-0.5,0.2-0.9,0.4-1.4c0-0.2,0.1-0.4,0.1-0.5c0-0.2,0.1-0.3,0.1-0.5
			c0-0.4,0.1-0.8,0.2-1.1c0.1-0.4,0.2-0.8,0.2-1.2c0.1-0.1,0.1-0.3,0.1-0.4c0-0.1,0-0.3,0.1-0.4c0-0.3,0-0.6,0-0.8
			c0-0.2,0-0.5,0.1-0.7c0-0.2,0-0.3,0-0.4c0-0.1,0.1-0.2,0.1-0.4c0-0.1,0-0.2,0-0.3c0.1-0.1,0.1-0.2,0.1-0.3c0-0.2,0-0.3,0-0.3
			c0-0.1,0-0.1,0-0.2c0.1-0.1,0.1-0.3,0.2-0.4c0-0.2,0.1-0.3,0.1-0.5c0.2-0.3,0.4-0.4,0.5-0.5c0.1,0,0.2-0.1,0.2-0.3
			c0.2-0.1,0.3-0.2,0.5-0.3c0.2-0.1,0.4-0.1,0.4,0.1c0,0,0.1,0.1,0.1,0.1c0,0.1,0,0.1,0,0.2c0.1,0.2,0.1,0.3,0.1,0.3s0,0,0,0.1
			c0,0.1,0,0.1,0.1,0.2c0,0.1,0.1,0.2,0.1,0.3c0.1,0.2,0.1,0.3,0.1,0.4s0.1,0.2,0.3,0.3c0.1,0,0.1,0.1,0.2,0.1c0.1,0,0.2,0,0.3,0.1
			c0.1,0,0.1,0.1,0.2,0.1s0.1,0.1,0.2,0.1c0.1,0,0.1,0.1,0.2,0.1c0.1,0,0.2,0,0.3,0.1c0.1,0,0.2,0.1,0.2,0.1c0,0,0,0.1,0.2,0.1
			c0.4,0.2,0.7,0.4,0.9,0.7c0.2,0.2,0.4,0.3,0.6,0.4c0.2,0.1,0.2,0.3,0.2,0.5c0,0.1,0,0.1,0,0.2c0,0.1,0,0.2,0,0.2
			c0,0.1-0.1,0.2-0.1,0.4c0,0.1,0,0.2,0,0.3c0,0.1,0,0.2,0,0.2c0,0.4-0.1,0.7-0.2,1c-0.1,0.3-0.1,0.6-0.1,0.9
			c0.3,0.6,0.6,0.9,0.9,1.1c0.4,0.2,0.6,0.2,0.6,0.2c0.1,0,0.2-0.1,0.4-0.3c0.1-0.2,0.2-0.3,0.3-0.4c0.1-0.1,0.1-0.1,0.2-0.2
			c0-0.1,0.1-0.1,0.2-0.2C193.7,173.8,193.8,173.7,193.9,173.8C193.8,173.8,193.8,173.8,193.9,173.8z"/>
		<path class="st3" d="M197.3,156.4c0.1,0,0.1,0.1,0.2,0.1c0,0.1,0.1,0.1,0.2,0.1c0.1,0.2,0.1,0.4,0.2,0.6c0.1,0.2,0.2,0.4,0.3,0.5
			c0,0.1,0.1,0.1,0.2,0.1c0.1,0,0.1,0.1,0.2,0.1c0,0.3,0.1,0.4,0,0.5c0,0.1,0,0.1,0,0.2c-0.1,0.1-0.1,0.2-0.1,0.3s-0.1,0.2-0.2,0.3
			c0,0.1,0,0.1,0,0.2c0,0.1,0,0.1,0,0.2c-0.2,0.3-0.5,0.5-1,0.6c-0.2-0.1-0.4-0.1-0.6-0.1c-0.4-0.2-0.7-0.6-0.8-1.2
			c0-0.1,0-0.2-0.1-0.4c0-0.1,0-0.2,0-0.3c0.1-0.3,0.2-0.4,0.3-0.5c0.1-0.1,0.1-0.2,0.1-0.3c0-0.1,0.1-0.2,0.2-0.3
			c0,0,0.1-0.1,0.1-0.1c0.1,0,0.1-0.1,0.2-0.2c0.1-0.1,0.1-0.1,0.2-0.2c0-0.1,0.1-0.1,0.1-0.1L197.3,156.4z M200.5,171
			c0.1-0.2,0.3-0.3,0.5-0.4s0.4-0.3,0.5-0.5c0-0.1,0.1-0.2,0.1-0.3s0.1-0.1,0.2-0.2c0.2-0.3,0.4-0.5,0.5-0.8
			c0.1-0.2,0.3-0.4,0.5-0.6c0-0.1,0.1-0.1,0.1-0.2c0-0.1,0.1-0.2,0.1-0.2c0.2-0.3,0.4-0.5,0.5-0.7c0.1-0.2,0.1-0.3,0.2-0.5
			c0.1-0.2,0.1-0.3,0.2-0.5c0.1-0.2,0.1-0.4,0.2-0.6c0.2-0.3,0.3-0.6,0.4-0.8c0.1-0.2,0.2-0.5,0.3-0.8c0-0.1,0-0.2,0-0.3
			c0-0.1,0-0.2,0-0.3c0.3-0.2,0.6-0.2,0.8,0c0,0.3,0,0.5-0.1,0.7c-0.1,0.2-0.1,0.5-0.2,0.7c-0.1,0.2-0.2,0.3-0.2,0.5
			c0,0.1-0.1,0.3-0.1,0.5c0,0,0,0.1-0.1,0.2s-0.1,0.2-0.1,0.2c0,0.2-0.1,0.3-0.1,0.4c0,0.1,0,0.1-0.1,0.1c0,0,0,0.1-0.1,0.1
			c0,0.1-0.1,0.2-0.1,0.4c0,0.3-0.1,0.5-0.2,0.8c-0.2,0.6-0.4,1.2-0.7,1.7c-0.3,0.5-0.5,1-0.7,1.5c-0.1,0.1-0.1,0.2-0.1,0.3
			s0,0.2-0.1,0.3c0,0.1-0.1,0.3-0.3,0.5c-0.1,0.2-0.3,0.4-0.4,0.5c-0.1,0.1-0.1,0.3-0.2,0.3c-0.4,0.3-0.7,0.4-1,0.4
			c-0.3,0-0.6,0-0.7,0c-0.2,0-0.4,0-0.5-0.2c-0.3,0-0.5-0.1-0.7-0.3s-0.4-0.4-0.6-0.6c-0.1-0.1-0.2-0.2-0.2-0.3
			c-0.1-0.1-0.2-0.2-0.2-0.4c-0.1-0.2-0.2-0.5-0.3-0.7s-0.2-0.5-0.2-0.7c0-0.3-0.1-0.5-0.2-0.7c-0.1-0.2-0.2-0.4-0.2-0.7
			c0-0.2,0-0.4,0-0.4s0,0,0-0.1c0-0.1,0-0.2,0-0.2c0-0.1,0-0.2,0-0.3l-0.1-0.5c0-0.2,0-0.3,0-0.5c0-0.2,0-0.4-0.1-0.6
			c0-0.1,0-0.3,0-0.4c0-0.1,0-0.3,0-0.4c0-0.1,0-0.3-0.1-0.4c0-0.1-0.1-0.3-0.1-0.5c0-0.2-0.1-0.4-0.1-0.6c0-0.2,0-0.4,0-0.6
			c0-0.2,0-0.3,0-0.4c0-0.1,0.1-0.2,0.2-0.3c0.1-0.1,0.1-0.1,0.3-0.1s0.2-0.1,0.3-0.2c0.2-0.3,0.3-0.4,0.4-0.5s0.1-0.1,0.1-0.2
			c0.2-0.1,0.4-0.1,0.6-0.1c0.2,0.1,0.3,0.1,0.5,0.1c0.2,0.6,0.3,1.1,0.4,1.4s0.1,0.8,0.1,1.2c0,0.2,0,0.4,0,0.7
			c0,0.2,0,0.5,0.1,0.6c0,0.3,0,0.5,0,0.7c0,0.2,0,0.4,0.1,0.7c0,0.1,0,0.2,0,0.3c0,0.1,0,0.2,0,0.3c0,0.2,0.1,0.3,0.1,0.4
			c0,0.1,0,0.3,0,0.4c0,0.1,0,0.3,0,0.4c0,0.1,0,0.3,0.1,0.4c0,0.3,0.1,0.4,0.1,0.5c0,0.1,0,0.1,0,0.2c0.1,0.2,0.1,0.4,0.1,0.6
			c0,0.2,0.1,0.2,0.2,0.2L200.5,171z"/>
		<path class="st3" d="M214,154.5c0.3,0.1,0.5,0.2,0.6,0.2s0.1,0.2,0.2,0.3c0,0.2,0,0.3,0,0.5c0,0.1,0,0.3,0,0.5
			c0,0.1-0.1,0.2-0.2,0.3c-0.1,0.1-0.1,0.2-0.1,0.4c-0.1,0.1-0.1,0.2-0.2,0.3s-0.1,0.2-0.3,0.3c-0.1,0.7-0.2,1.3-0.3,1.8
			c-0.1,0.5-0.2,1-0.4,1.5c-0.1,0.4-0.2,0.8-0.3,1.2c-0.1,0.4-0.3,0.8-0.4,1.2c0,0.2,0,0.3,0,0.4c0,0.1,0,0.3-0.1,0.4
			c0,0.4-0.1,0.7-0.2,1c-0.1,0.3-0.2,0.6-0.2,1c-0.1,0.3-0.2,0.5-0.4,0.7c-0.2,0.2-0.3,0.4-0.4,0.7c-0.2,0.4-0.4,0.6-0.7,0.6
			c-0.2,0.2-0.3,0.3-0.4,0.5s-0.3,0.2-0.5,0.3c-0.1,0-0.1,0-0.2,0c-0.1,0-0.2,0-0.3,0c-0.2,0.1-0.4,0.1-0.6,0.1s-0.3,0-0.4,0
			c-0.1,0-0.2,0-0.3-0.1c-0.1,0-0.3-0.1-0.3-0.1c-0.2-0.1-0.4-0.2-0.5-0.4c-0.2-0.2-0.4-0.3-0.6-0.5c-0.2-0.2-0.4-0.3-0.6-0.4
			c-0.2-0.1-0.4-0.3-0.5-0.5c-0.1-0.1-0.2-0.3-0.2-0.5c-0.1-0.2-0.1-0.3-0.2-0.5c-0.1-0.3-0.2-0.6-0.3-0.9c-0.1-0.3-0.2-0.5-0.2-0.8
			c0-0.1,0-0.2,0-0.3c0-0.1,0-0.2,0-0.3c0-0.1,0-0.1-0.1-0.2c0-0.1-0.1-0.1-0.1-0.2c0-0.3,0-0.5,0.1-0.8c0-0.3,0-0.6,0-0.8
			c0-0.2,0-0.4,0-0.5c0-0.2,0-0.3,0-0.5c0-0.2,0-0.3,0-0.4s0-0.1,0-0.2c0-0.2,0-0.4,0-0.5c0-0.2,0-0.4,0-0.5c0-0.2,0.1-0.4,0.1-0.7
			c0-0.2,0.1-0.4,0.1-0.6c0.1-0.2,0.2-0.4,0.3-0.6c0.1-0.2,0.2-0.4,0.3-0.6c0.1-0.1,0.1-0.2,0.1-0.3c0-0.1,0.1-0.2,0.1-0.3
			c0.1-0.1,0.1-0.2,0.2-0.3c0.1-0.1,0.1-0.2,0.1-0.3c0.1-0.1,0.2-0.2,0.2-0.3c0-0.1,0.1-0.2,0.2-0.3c0.1-0.1,0.2-0.1,0.2-0.2
			s0.1-0.1,0.2-0.2c0.1,0,0.1,0,0.2-0.1c0.1,0,0.1-0.1,0.2-0.1c0.1,0,0.2,0,0.3,0c0.1,0,0.2,0.1,0.3,0.1c0.2,0.2,0.4,0.5,0.4,0.9
			s0.1,0.7,0.1,0.9c0,0.2,0,0.4,0,0.6c0,0.2-0.1,0.4-0.1,0.5c-0.2,0.2-0.4,0.3-0.6,0.5s-0.4,0.3-0.6,0.4c0,0.1,0,0.2,0,0.2
			c0,0.1,0,0.1,0.1,0.2c-0.2,0.9-0.3,1.8-0.3,2.7c0,0.9,0.1,1.8,0.5,2.7c0.1,0.4,0.2,0.6,0.2,0.8s0.1,0.4,0.2,0.5
			c0.4,0.3,0.8,0.4,1.2,0.5c0.4,0.1,0.8,0,1-0.1c0.3-0.2,0.5-0.4,0.6-0.7c0.1-0.3,0.2-0.6,0.3-0.8c0.1-0.4,0.2-0.7,0.3-1
			c0.1-0.3,0.3-0.6,0.4-1c0-0.1,0.1-0.2,0.1-0.3c0-0.1,0.1-0.2,0.1-0.3c0.1-0.3,0.2-0.6,0.3-0.9c0.1-0.3,0.1-0.6,0.2-0.8
			c0.1-0.1,0.1-0.2,0.1-0.2c0-0.1,0.1-0.1,0.1-0.2c0.1-0.5,0.2-1,0.4-1.5s0.4-1,0.6-1.5c0-0.2,0.1-0.4,0.1-0.6
			c0.1-0.2,0.1-0.4,0.1-0.6c0.1-0.1,0.2-0.2,0.2-0.3C213.9,154.7,213.9,154.6,214,154.5z"/>
		<path class="st2" d="M219.9,147.3c0.2,0.1,0.3,0.2,0.5,0.4s0.4,0.4,0.5,0.5c0.2,0.2,0.4,0.3,0.4,0.4c0.1,0.1,0.1,0.2,0.2,0.3
			c0.1,0.2,0.3,0.3,0.4,0.6c0.2,0.2,0.3,0.4,0.5,0.6c0.1,0.1,0.2,0.2,0.3,0.3c0.1,0.1,0.2,0.2,0.3,0.3c0.1,0.1,0.3,0.2,0.4,0.4
			c0.2,0.1,0.3,0.2,0.5,0.3c0.1,0,0.3,0.1,0.5,0.1c0.2,0,0.4,0,0.5,0.1c0.2-0.1,0.3-0.1,0.3-0.1s0.1,0,0.1,0.1c0.2,0,0.3,0,0.5-0.1
			c0.2-0.1,0.4-0.3,0.6-0.5c0.2-0.3,0.4-0.5,0.6-0.6c0.2-0.3,0.3-0.7,0.4-1c0-0.1,0-0.2,0.1-0.3c0-0.1,0-0.2,0-0.3
			c0-0.1-0.1-0.2-0.2-0.4c-0.1-0.1-0.2-0.3-0.2-0.4s-0.2-0.3-0.4-0.5c-0.2-0.2-0.3-0.4-0.4-0.5c-0.2-0.4-0.4-0.8-0.7-1.2
			c-0.3-0.4-0.5-0.8-0.8-1.1c-0.1-0.2-0.3-0.4-0.4-0.6c-0.1-0.2-0.2-0.4-0.4-0.7c-0.1-0.2-0.3-0.4-0.4-0.6c-0.1-0.2-0.2-0.4-0.3-0.7
			c-0.2-0.3-0.4-0.5-0.5-0.8c-0.1-0.3-0.2-0.5-0.4-0.8c-0.2-0.3-0.3-0.7-0.5-1c-0.1-0.3-0.3-0.7-0.4-1c-0.1-0.3-0.3-0.6-0.4-1
			c-0.2-0.3-0.4-0.7-0.5-1.1c-0.1-0.4-0.3-0.7-0.5-1c-0.2-0.3-0.3-0.5-0.5-0.8c-0.2-0.2-0.3-0.5-0.4-0.8c-0.2-0.3-0.3-0.6-0.5-0.9
			s-0.3-0.5-0.4-0.9c-0.1-0.1-0.1-0.2-0.2-0.2c0-0.1-0.1-0.2-0.2-0.3c-0.1,0.2-0.1,0.3-0.1,0.5s0,0.4-0.1,0.6c0,0.2,0,0.4,0,0.7
			s0,0.5,0,0.6c0.2,0.2,0.2,0.4,0.3,0.4s0,0.2,0.1,0.3c-0.1,0.1-0.1,0.2-0.2,0.3s-0.1,0.2-0.2,0.3c-0.1,0.1-0.2,0.1-0.3,0.1
			c-0.1,0-0.2,0-0.3-0.1c-0.2,0-0.4-0.1-0.4-0.2s-0.1-0.2-0.1-0.3c0-0.1,0-0.1,0-0.2c0-0.1,0-0.1-0.1-0.2c0-0.4,0-0.7,0-1.1
			c0-0.4,0-0.7,0-1.1c0-0.2,0-0.4-0.1-0.5c0-0.2,0-0.4-0.1-0.5l0-1.1c0-0.3,0-0.5,0-0.7s-0.1-0.5-0.1-0.7c0-0.2,0-0.5,0-0.7
			c0-0.2,0.2-0.5,0.3-0.8c0-0.1,0.1-0.2,0.1-0.2c0-0.1,0.1-0.1,0.1-0.2c0.1-0.1,0.1-0.2,0.1-0.2c0,0,0.1-0.1,0.1-0.2
			c0-0.1,0.1-0.2,0.1-0.3c0-0.1,0-0.2,0.1-0.3c0-0.1,0.1-0.2,0.1-0.3c0.1-0.1,0.1-0.2,0.1-0.3c0-0.1,0.1-0.1,0.1-0.2
			c0.1,0,0.1-0.1,0.2-0.1c0.2,0,0.3,0,0.5,0.1c0.1,0.1,0.3,0.2,0.4,0.3s0.2,0.3,0.3,0.4c0.1,0.2,0.1,0.3,0.2,0.4
			c0.1,0.1,0.1,0.3,0.2,0.4c0,0.2,0.1,0.3,0,0.4c0.1,0.3,0.2,0.6,0.2,0.8s0.2,0.6,0.3,0.9c0.1,0.3,0.2,0.6,0.3,0.8
			c0.1,0.3,0.2,0.6,0.3,0.8c0.1,0.3,0.2,0.6,0.3,0.9s0.2,0.6,0.4,0.8c0.2,0.4,0.3,0.7,0.4,1.1c0.1,0.4,0.3,0.8,0.5,1.1
			c0.1,0.2,0.3,0.5,0.4,0.7c0.2,0.2,0.3,0.5,0.5,0.7c0,0.1,0.1,0.1,0.1,0.2s0.1,0.1,0.1,0.2c0,0.1,0.1,0.2,0.1,0.2
			c0,0,0.1,0.1,0.1,0.2c0.2,0.4,0.4,0.7,0.6,1.1c0.2,0.4,0.4,0.7,0.6,1.1c0,0.1,0,0.1,0.1,0.2c0,0.1,0.1,0.1,0.1,0.2
			c0,0,0.1,0.1,0.2,0.2c0.1,0.1,0.2,0.2,0.3,0.3c0.1,0.2,0.2,0.4,0.2,0.6c0.1,0.1,0.1,0.3,0.2,0.4c0.2,0.5,0.4,0.9,0.7,1.4
			s0.5,0.9,0.8,1.4c0.1,0.2,0.2,0.5,0.3,0.7s0.2,0.4,0.4,0.7c0.1,0.1,0.2,0.2,0.2,0.3c0,0.1,0.1,0.2,0.2,0.3
			c0.1,0.2,0.2,0.3,0.3,0.5s0.2,0.3,0.3,0.5c0,0.1,0,0.2,0.1,0.3c0,0.1,0,0.2,0.1,0.3c0,0.1,0.1,0.2,0.2,0.2
			c0.1,0.1,0.1,0.1,0.2,0.2c0.1,0.1,0.1,0.2,0.2,0.4s0.1,0.3,0.1,0.5c0,0.2,0.1,0.3,0.1,0.4c0,0.1,0.1,0.2,0.1,0.4
			c0,0.1,0,0.3-0.1,0.4c0,0.1,0,0.3-0.1,0.4c-0.1,0.3-0.1,0.6-0.2,0.8c-0.1,0.2-0.1,0.3-0.2,0.4c0,0.1-0.1,0.2-0.1,0.2
			c-0.1,0.1-0.2,0.2-0.2,0.3s-0.2,0.1-0.2,0.3c-0.1,0.2-0.2,0.3-0.3,0.4c-0.1,0.1-0.3,0.2-0.4,0.3c-0.1,0.1-0.1,0.1-0.2,0.2
			c-0.1,0.1-0.1,0.1-0.2,0.2c-0.2,0.2-0.5,0.4-0.9,0.4c-0.3,0.1-0.6,0.2-0.9,0.5c-0.6,0.2-1.1,0.2-1.8,0.2c-0.6-0.1-1.3-0.2-1.9-0.4
			c-0.4-0.2-0.7-0.4-1-0.7c-0.3-0.3-0.6-0.6-0.9-0.9c-0.2-0.2-0.4-0.4-0.5-0.5s-0.3-0.3-0.5-0.5c-0.1-0.1-0.2-0.3-0.2-0.4
			c-0.1-0.1-0.1-0.2-0.2-0.3c0-0.1-0.1-0.3-0.1-0.4c0-0.2-0.1-0.3-0.1-0.5c0-0.2,0.1-0.3,0.2-0.5c0.1-0.2,0.3-0.3,0.4-0.5
			c0.1-0.1,0.1-0.3,0.1-0.5C219.7,147.5,219.8,147.4,219.9,147.3z"/>
	</g>
</g>
<path class="st4" d="M178.1,78"/>
<path class="st3" d="M141.3,67.8"/>
<path class="st3" d="M159.9,75"/>
<path class="st4" d="M157.9,58.1"/>
<path class="st4" d="M159.7,70.5"/>
<path class="st3" d="M166.4,79c1.2,0.5,2.2,1.1,4.3,1.8c1.7,0.6,3.2,0.9,4.2,1c-0.5-2.3-0.8-4.2-1.1-5.5c-0.5-3-0.6-3.9-0.7-4.5
	c-0.1-1.9-0.1-3.5,0-5c0.1-3.6-0.3-6.6-0.7-8.8l0,0c-0.1-1.1-0.7-4.7-5.2-9.6c-2.1-2.3-5.7-6.2-11.8-8.5c-4.3-1.6-7.8-1.6-10.7-1.6
	c-2.3,0-5.8-0.1-10,1.2c-2.1,0.6-13.6,4-15.2,12.3c-0.5,2.5,0.1,4.7,0.6,6.2c-0.6,0.3-1.3,0.7-1.9,1c-0.3,0.8-0.6,1.7-0.8,2.8
	c-0.2,1-0.2,2-0.2,2.7c0.2,2.3,0.4,4.2,0.5,5.8c0,0.4,0.1,1.1,0.3,2c0.2,0.9,0.6,1.7,0.9,2.3c-0.3,0.8-0.8,1.4-1.1,1.7
	c-0.5,0.6-1,1-1.4,1.2c-0.8,0.4-1.3,0.4-1.5,0.9c-0.4,1,1.3,2.1,2.8,4.2c1.1,1.5,1.6,2.9,1.9,3.9c0.4,0.1,0.8,0.3,1.1,0.4
	c0.5-0.5,1.7-1.6,3.5-1.8c0.7-0.1,1.2-0.1,1.7,0c0.4-0.5,1.1-0.5,1.3-0.2c0.3,0.3,0.2,0.9-0.3,1.3c0,0.6,0.1,1.3,0.1,1.9
	c1.3,0.5,2.9,0.9,4.8,1.1c5.2,0.5,9.3-1.3,11.3-2.4c-0.1-0.6-0.1-1.3-0.2-1.9c-0.3-0.5-0.5-1-0.8-1.5c-0.4-0.5-0.3-1.2,0-1.5
	c0.4-0.4,1.3-0.3,1.8,0.4c0.7-0.7,1.6-1.4,2.8-2.1c3.6-1.9,7.2-1.4,8.6-1.2c0.5-0.5,0.8-0.8,1.3-1.3c-0.3-1.5-0.6-4.6,0.9-7.9
	c0.5-1.2,1.1-2.1,1.7-2.8c0-0.1,0.1-0.5-0.1-0.9c-0.2-0.4-0.7-0.6-1.1-0.6c-0.6,0.1-1.4,0.2-2.3,0.1c-0.5,0-0.8-0.1-1.2-0.2
	c-0.3-0.1-0.6-0.3-0.8-0.4c-0.2-0.6-0.5-1.4-1.1-2.3c-0.6-0.9-1.3-1.6-1.8-2c-0.3-1-0.7-2.1-0.9-3.5c-0.3-2.3-0.2-4.2,0-5.6
	c0.5-0.1,1.1-0.3,1.8-0.3c1.1,0,1.9,0.2,2.5,0.3c-0.6-0.1-1.4-0.1-2.4,0.2c-0.4,0.1-0.7,0.3-1,0.4c0,0.9,0.1,2,0.3,3.2
	c0.3,1.7,0.8,3.2,1.3,4.3c0.4,0.6,0.8,1.2,1.3,1.9c0.5,0.7,1,1.3,1.5,1.9c3-0.2,7-0.3,8.9,0.7c0.1,0,0.1,0.1,0.1,0.1
	c0.5,0.3,1.8,1,3.4,2.9c3.2,3.8,4.2,8.1,4.6,11.2c-3.8-1.5-5.9-3-7.1-4.1c-0.4-0.3-1.2-1.2-2.6-1.9c-1.3-0.8-2.6-1.1-3.4-1.3
	c-0.4,0.6-1.2,2-1.2,3.9c0,1.3,0.3,2.3,0.6,2.9C162.3,77.7,164.8,78.4,166.4,79z"/>
<g>
	<path class="st5" d="M119.8,57.8c1.2-0.6,2.6-0.9,3.9-1c-1.3,0.2-2.6,0.7-3.7,1.3c-0.1,0.1-0.2,0-0.3-0.1
		C119.6,58,119.6,57.9,119.8,57.8C119.7,57.8,119.7,57.8,119.8,57.8z"/>
</g>
<g>
	<g>
		<path class="st5" d="M154,63.2c1-0.3,2-0.4,3.1-0.6c1-0.1,2-0.2,3.1-0.3c1,0,2.1,0,3.1,0.2c1,0.2,2,0.5,2.9,1
			c-0.9-0.5-1.9-0.7-2.9-0.8c-1-0.1-2,0-3,0.1c-2,0.2-4,0.7-5.8,1.4l0,0c-0.3,0.1-0.6-0.1-0.7-0.4C153.5,63.6,153.7,63.3,154,63.2
			C154,63.2,154,63.2,154,63.2z"/>
	</g>
	<g>
		<path class="st5" d="M153.4,61.5c1-0.3,2-0.4,3.1-0.6c1-0.1,2-0.2,3.1-0.3c1,0,2.1,0,3.1,0.2c1,0.2,2,0.5,2.9,1
			c-0.9-0.5-1.9-0.7-2.9-0.8c-1-0.1-2,0-3,0.1c-2,0.2-4,0.7-5.8,1.4l0,0c-0.3,0.1-0.6-0.1-0.7-0.4C152.9,61.9,153.1,61.6,153.4,61.5
			C153.4,61.5,153.4,61.5,153.4,61.5z"/>
	</g>
	<g>
		<path class="st5" d="M152.9,59.8c1-0.3,2-0.4,3.1-0.6c1-0.1,2-0.2,3.1-0.3c1,0,2.1,0,3.1,0.2c1,0.2,2,0.5,2.9,1
			c-0.9-0.5-1.9-0.7-2.9-0.8c-1-0.1-2,0-3,0.1c-2,0.2-4,0.7-5.8,1.4l0,0c-0.3,0.1-0.6-0.1-0.7-0.4C152.4,60.3,152.5,59.9,152.9,59.8
			C152.8,59.8,152.9,59.8,152.9,59.8z"/>
	</g>
	<g>
		<path class="st5" d="M152.3,58.1c1-0.3,2-0.4,3.1-0.6c1-0.1,2-0.2,3.1-0.3c1,0,2.1,0,3.1,0.2c1,0.2,2,0.5,2.9,1
			c-0.9-0.5-1.9-0.7-2.9-0.8c-1-0.1-2,0-3,0.1c-2,0.2-4,0.7-5.8,1.4l0,0c-0.3,0.1-0.6-0.1-0.7-0.4C151.8,58.6,152,58.3,152.3,58.1
			C152.3,58.1,152.3,58.1,152.3,58.1z"/>
	</g>
	<g>
		<path class="st5" d="M151.7,56.5c1-0.3,2-0.4,3.1-0.6c1-0.1,2-0.2,3.1-0.3c1,0,2.1,0,3.1,0.2c1,0.2,2,0.5,2.9,1
			c-0.9-0.5-1.9-0.7-2.9-0.8c-1-0.1-2,0-3,0.1c-2,0.2-4,0.7-5.8,1.4l0,0c-0.3,0.1-0.6-0.1-0.7-0.4C151.2,56.9,151.4,56.6,151.7,56.5
			C151.7,56.5,151.7,56.5,151.7,56.5z"/>
	</g>
	<g>
		<path class="st5" d="M151.2,54.8c1-0.3,2-0.4,3.1-0.6c1-0.1,2-0.2,3.1-0.3c1,0,2.1,0,3.1,0.2c1,0.2,2,0.5,2.9,1
			c-0.9-0.5-1.9-0.7-2.9-0.8c-1-0.1-2,0-3,0.1c-2,0.2-4,0.7-5.8,1.4l0,0c-0.3,0.1-0.6-0.1-0.7-0.4C150.7,55.2,150.8,54.9,151.2,54.8
			C151.1,54.8,151.2,54.8,151.2,54.8z"/>
	</g>
	<g>
		<path class="st5" d="M150.6,53.1c1-0.3,2-0.4,3.1-0.6c1-0.1,2-0.2,3.1-0.3c1,0,2.1,0,3.1,0.2c1,0.2,2,0.5,2.9,1
			c-0.9-0.5-1.9-0.7-2.9-0.8c-1-0.1-2,0-3,0.1c-2,0.2-4,0.7-5.8,1.4l0,0c-0.3,0.1-0.6-0.1-0.7-0.4C150.1,53.5,150.3,53.2,150.6,53.1
			C150.6,53.1,150.6,53.1,150.6,53.1z"/>
	</g>
</g>
<g>
	<path class="st5" d="M136.5,71.2c1.5,1.5,2.8,3.3,3.7,5.1c-1.1-1.8-2.5-3.4-4.1-4.7c-0.1-0.1-0.1-0.3,0-0.4
		C136.2,71.1,136.4,71.1,136.5,71.2C136.5,71.2,136.5,71.2,136.5,71.2z"/>
</g>
<g>
	<path class="st5" d="M132.7,71.7l-1.7,2.4l-1.5,2.6l1.3-2.7l1.6-2.5c0.1-0.1,0.2-0.1,0.3-0.1C132.7,71.5,132.8,71.6,132.7,71.7
		C132.7,71.7,132.7,71.7,132.7,71.7L132.7,71.7z"/>
</g>
<g>
	<path class="st6" d="M144.4,51.2c1.2-0.2,2.4,0.1,3.3,0.8c-1-0.6-2.2-0.7-3.3-0.4c-0.1,0-0.2,0-0.2-0.1S144.3,51.2,144.4,51.2
		C144.4,51.2,144.4,51.2,144.4,51.2z"/>
</g>
<g>
	<path class="st6" d="M144.8,52c1.2-0.1,2.4,0.4,3.2,1.1c-0.9-0.7-2.1-0.9-3.2-0.8c-0.1,0-0.2-0.1-0.2-0.2
		C144.6,52.1,144.7,52,144.8,52C144.8,52,144.8,52,144.8,52z"/>
</g>
<g>
	<path class="st6" d="M145,52.9c1.2,0,2.4,0.5,3.2,1.3c-0.9-0.7-2.1-1-3.2-0.9c-0.1,0-0.2-0.1-0.2-0.2C144.8,53,144.9,52.9,145,52.9
		C145,52.9,145,52.9,145,52.9z"/>
</g>
<g>
	<path class="st6" d="M145,53.8c1.2,0.1,2.3,0.6,3.1,1.5c-0.9-0.8-2-1.1-3.1-1.1c-0.1,0-0.2-0.1-0.2-0.2S144.9,53.8,145,53.8
		C145,53.8,145,53.8,145,53.8z"/>
</g>
<g>
	<path class="st6" d="M129.3,56.6l-2.3-0.4l0.1,0c-0.4,0.1-0.9,0.2-1.3,0.2c-0.4,0-0.9,0.1-1.3,0.2c0.4-0.1,0.8-0.3,1.3-0.3
		c0.4-0.1,0.8-0.2,1.3-0.3l0,0l0,0l2.3,0.3c0.1,0,0.2,0.1,0.2,0.2C129.5,56.5,129.4,56.6,129.3,56.6
		C129.3,56.6,129.3,56.6,129.3,56.6z"/>
</g>
<g>
	<path class="st6" d="M149.7,67.6c-1.7,1.9-4,3.2-6.5,3.8l0.2-0.6c0.6,0.8,1.2,1.6,1.8,2.4l0.1,0.1l0,0.1c-0.2,0.8-0.3,1.7-0.6,2.5
		c0-0.9,0-1.7,0.1-2.5l0.1,0.2c-0.7-0.7-1.3-1.5-2-2.3l-0.4-0.4l0.5-0.2C145.4,70,147.6,68.9,149.7,67.6z"/>
</g>
<g>
	<path class="st6" d="M121,74.7c0.8,0.3,1.6,0.4,2.5,0.5c0.8,0.1,1.7,0.1,2.5-0.2l0.1-0.1l0,0.2c-0.2,0.7-0.4,1.4-0.7,2.2l0-0.1
		c0.2,0.3,0.5,0.5,0.8,0.8l0,0l0,0c0.1,0.4,0.1,0.9,0.2,1.4c-0.1-0.4-0.2-0.9-0.3-1.3l0,0c-0.3-0.3-0.5-0.5-0.8-0.8l0,0l0,0
		c0.2-0.7,0.4-1.4,0.7-2.2l0.1,0.1c-0.8,0.3-1.7,0.2-2.6,0.1C122.6,75.2,121.7,75,121,74.7z"/>
</g>
<g>
	<path class="st6" d="M157,67.6c-0.9,1.4-1.5,3-1.8,4.6c-0.3,1.6-0.3,3.3,0,4.9l0,0.3l-0.2-0.1c-2-0.4-4-0.3-6,0.2
		c1.9-0.8,4-1,6.1-0.5l-0.2,0.2c-0.4-1.7-0.3-3.4,0-5.1C155.2,70.5,155.9,68.9,157,67.6z"/>
</g>
<g>
	<path class="st6" d="M116.6,79.6c0.9,0.7,1.7,1.6,2.4,2.6c0.7,1,1.2,2.1,1.6,3.2l-0.1,0c1.6-1,3.6-1.5,5.4-1.2
		c-1.9-0.2-3.8,0.3-5.3,1.3l-0.1,0.1l0-0.1c-0.4-1.1-0.9-2.2-1.5-3.2C118.2,81.3,117.5,80.4,116.6,79.6z"/>
</g>
<g>
	<path class="st6" d="M131.9,56.5c0,0.3,0,0.5,0,0.8c0,0.3,0,0.5,0,0.7c0,0.5,0.1,1,0.2,1.5l-0.5-0.3c0.9-0.3,1.8-0.6,2.7-0.9
		c0.9-0.3,1.8-0.8,2.6-1.3c1.7-1,3.2-2.3,4.5-3.7c-1.3,1.5-2.7,2.8-4.3,4c-0.8,0.6-1.7,1.1-2.5,1.5c-0.9,0.5-1.8,0.9-2.7,1.1
		l-0.4,0.1l-0.1-0.4c-0.1-0.5-0.1-1.1,0-1.6c0-0.3,0.1-0.5,0.2-0.8C131.7,57,131.8,56.7,131.9,56.5z"/>
</g>
<path class="st5" d="M128.2,88.7c0-0.2,0.2-1.7,0.7-1.8c0.4,0,0.9,0.9,1.2,2.2l1.5,0.2c0-0.1,0.2-2.3,0.7-2.3c0.3,0,0.7,1,1,2.5
	c0.4,0,0.9,0,1.3,0c0.1-1.6,0.4-2.8,0.8-2.9c0.4,0,0.8,1.1,1.1,2.7l1.5-0.3c0-0.3,0.2-2.7,0.6-2.7c0.4,0,0.9,2,1,2.3l1.1-0.4
	c0-0.4,0-2.8,0.6-2.9c0.4-0.1,1,1.7,1.2,2.2c-1.6,0.8-4.3,1.8-7.9,1.9C131.9,89.7,129.7,89.2,128.2,88.7z"/>
<path class="st3" d="M129,87.8c0.3,0,0.7,1.5,0.8,2.1c-0.4-0.1-0.9-0.2-1.3-0.3C128.6,89,128.7,87.8,129,87.8z"/>
<path class="st3" d="M132.4,88.2c0.4,0,0.7,2,0.8,2.3l-1.4-0.1C131.8,90.1,132,88.3,132.4,88.2z"/>
<path class="st3" d="M134.9,90.5c0-0.7,0.1-2.8,0.5-2.8c0.3,0,0.7,2.1,0.9,2.7C135.8,90.5,135.4,90.5,134.9,90.5z"/>
<path class="st3" d="M138.3,90.1c0-1.1,0-2.6,0.3-2.6c0.3,0,0.6,1.3,0.9,2.3L138.3,90.1z"/>
<path class="st3" d="M141.4,86.5c-0.3,0-0.3,1.7-0.3,2.7l1.3-0.4C142.1,87.8,141.7,86.5,141.4,86.5z"/>
<path class="st5" d="M128.9,59.4c-1.6-1.6-7-0.5-8.7,2.9c-1,1.9-0.4,4-0.1,5.2c0.3,1.2,0.8,3.2,2.6,4.1c1.2,0.6,2.4,0.5,3.3,0.3
	c0.5-0.1,4.2-0.6,5-2.9c0.6-1.6-0.8-2.3-1.5-6.2C129.2,60.5,129.5,60,128.9,59.4z"/>
<path class="st5" d="M131.7,62.3c0.6,0.9,1.9,2.6,4.2,3.9c1,0.5,3.6,1.9,6.8,1.2c0.7-0.2,4-0.9,5.4-3.9c0.7-1.6,0.5-3,0.4-3.6
	c-0.7-4.1-5.3-5.8-5.5-5.9c-0.7,1.4-2.4,4-5.5,6C135.2,61.4,133.1,62,131.7,62.3z"/>
<path class="st2" d="M135.4,62.2c0.8,1.6,2.3,2.6,3.9,2.4c0.1,0,2.1-0.2,2.9-1.8c0.7-1.4,0.3-3.4-1.2-4.6c-0.7,0.7-1.5,1.4-2.6,2.2
	C137.4,61.2,136.3,61.8,135.4,62.2z"/>
<path class="st4" d="M124,64c-0.6-0.2-1.2-0.2-1.5-0.2c-0.1,0.1-0.3,0.3-0.5,0.6c-0.2,0.4,0,0.8,0,0.9c0.3,0,0.8,0.1,1.2,0.3
	c0.3,0.1,0.6,0.3,0.8,0.4c-0.1,0.4-0.2,0.8-0.4,1.2c-0.1,0.3-0.3,0.6-0.4,0.8c0,0,0.1,0.6,0.6,0.9c0.4,0.2,0.8,0.1,0.8,0.1
	c0.2-0.3,0.3-0.6,0.5-0.9c0.2-0.4,0.3-0.8,0.4-1.2c0.2,0.1,0.5,0.3,0.8,0.4c0.4,0.2,0.8,0.5,1.1,0.7c0.1,0,0.4-0.1,0.7-0.4
	c0.4-0.5,0.3-1.1,0.2-1.1c-0.3-0.3-0.7-0.5-1.1-0.8c-0.3-0.2-0.7-0.4-0.9-0.6c0.1-0.5,0.3-1.2,0.3-1.9c0.1-0.6,0.1-1.1,0-1.5
	c-0.1-0.1-0.3-0.3-0.7-0.3c-0.5-0.1-0.9,0.2-1,0.3c0,0.4,0,0.9,0,1.4c-0.1,0.5-0.2,0.9-0.3,1.2C124.6,64.2,124.3,64.1,124,64z"/>
<g>
	<path class="st5" d="M133.8,74c-0.1-0.6-0.2-1.3-0.3-2c-0.8,1.7-1.6,3.1-2.1,4c-1,1.7-1.6,2.5-1.7,3.9c-0.1,0.7-0.2,2,0.6,2.6
		c0.7,0.6,2,0.4,3.2-0.4c0.2-1,0.3-1.7,0.3-2.3c0-0.7-0.1-0.8,0-1.6c0-1,0.1-1,0.2-2C133.9,75.2,133.8,74.5,133.8,74z"/>
	<path class="st5" d="M134.4,78.5c0,0.5,0.1,1.3,0.3,2.1c0.2,0.6,0.3,0.9,0.5,1.1c0.9,0.8,3.2,0.2,3.8-1.1c0.3-0.6,0.2-1.1,0.1-1.5
		c-0.6-2.9-3.8-6.1-4.8-7.1c0,0.1,0.1,0.2,0.1,0.4c0,0.1,0.1,0.7,0.2,1.1c0.1,1.5,0,3,0,3C134.5,77.8,134.4,77.7,134.4,78.5z"/>
</g>
<path class="st4" d="M165.7,92.6c-0.2,0-0.4,0-0.7,0.2c-0.4,0.2-0.6,0.5-0.7,0.6c-0.4,0-0.9,0.1-1.5,0.3c-1.3,0.3-2.3,0.8-2.6,0.9
	c-0.6,0.3-1.4,0.7-2.2,1.3c-0.9,0.1-2.1,0.4-3.4,1c-0.9,0.4-1.6,0.9-2.2,1.3c-0.6,0-1.7,0.2-2.8,0.8c-1,0.5-1.7,1.1-2.1,1.6
	c-0.5-0.1-1.6-0.3-3,0.2c-1.2,0.4-2,1.1-2.3,1.5c-0.8-0.1-1.8,0-3,0.1c-1.6,0.3-2.9,0.8-3.7,1.2c-0.2,0-1.7,0.2-2.6,1.5
	c-0.6,0.9-0.6,1.8-0.6,2.1c-0.1,0.3-0.6,1.3-0.3,2.5c0.2,1,0.8,1.6,1,1.9c0.3,0.4,1,1.2,2.2,1.6c1.6,0.6,2.9,0.1,3.3,0
	c0.7-0.1,1.5-0.3,2.5-0.6c0.9-0.3,1.6-0.7,2.2-1c0.8-0.2,1.7-0.5,2.5-0.9c0.6-0.2,1.2-0.5,1.7-0.7c0.8-0.1,1.9-0.4,3-0.8
	c0.9-0.3,1.7-0.7,2.3-1.1c0.7-0.1,1.5-0.3,2.4-0.6c0.8-0.3,1.5-0.5,2.2-0.8c0.6-0.1,1.3-0.2,2.1-0.5c0.9-0.3,1.5-0.7,2-1.1
	c0.6,0,1.7-0.1,2.8-0.6c0.8-0.4,1.4-0.9,1.8-1.2c0.3,0.2,0.7,0.5,1.4,0.7c1.1,0.3,1.9,0,2.3-0.1c-0.3,0.1-0.5,0.4-0.5,0.7
	c0,0.4,0.4,0.6,0.4,0.6c-0.1-0.1-0.4-0.3-0.8-0.3c-0.3,0-0.5,0.2-0.6,0.2c-0.5,0-1.6,0-2.7,0.6c-1.2,0.6-1.9,1.4-2.2,1.8
	c-0.7,0.2-1.4,0.4-2.2,0.7c-0.7,0.3-1.3,0.5-1.8,0.8c-0.5,0.1-1.1,0.2-1.7,0.4c-1.2,0.3-2.2,0.7-3,1.1c-0.5,0.1-1.3,0.2-2.2,0.7
	c-0.6,0.3-1,0.7-1.3,1c-0.7-0.1-1.9-0.1-3.3,0.5c-0.5,0.2-0.9,0.4-1.2,0.7c-0.8,0.2-1.8,0.4-2.8,0.9c-0.6,0.3-1.1,0.6-1.6,0.9
	c-0.3,0-1.8,0.1-2.8,1.4c-0.2,0.3-0.9,1.1-0.8,2.3c0.1,0.9,0.6,1.4,0.8,1.7c0,0.2,0,0.7,0.3,1.3c0.3,0.6,0.8,0.9,1,1
	c0.1,0.2,0.7,1.1,1.9,1.3c1.3,0.3,2.2-0.3,2.4-0.4c0.7-0.1,1.4-0.2,2.1-0.3c0.8-0.1,1.9-0.3,3.2-0.8c0.9-0.4,1.6-0.8,2.2-1.2
	c1,0,2.4-0.1,3.8-0.5c0.8-0.2,1.6-0.5,2.2-0.8c0.6-0.1,1.5-0.3,2.4-0.6c0.9-0.3,1.5-0.7,2.1-1.1c0.4,0,1.1-0.1,1.8-0.3
	c0.9-0.3,1.5-0.7,1.9-1c-0.2,0.3-0.2,0.7,0,0.9c0.2,0.3,0.5,0.3,0.5,0.3c-0.4-0.1-0.8,0.1-1,0.4c-0.2,0.3-0.3,0.7-0.1,1.1
	c-0.4,0.2-0.9,0.4-1.5,0.7c-0.8,0.4-1.4,0.9-1.8,1.3c-0.8-0.1-2.3-0.1-3.8,0.8c-0.4,0.2-0.7,0.4-0.9,0.6c-0.5-0.1-1.2-0.2-2-0.1
	c-0.4,0-1.2,0.1-2.1,0.5c-0.8,0.3-1.5,0.8-1.9,1.2c-0.3,0.1-1.2,0.4-1.9,1.2c-0.6,0.7-0.8,1.5-0.8,1.8c-0.1,0.3-0.2,1,0.1,1.8
	c0.2,0.8,0.7,1.3,0.9,1.5c0.2,1.2,0.6,1.8,1,2.2c0.5,0.4,1.4,0.8,1.8,1.3c0,0.1,0.2,0.3,0.5,0.7c0,0,0.1,0.1,0.2,0.2
	c0.5,0.5,1.1,0.8,1.6,1c0.1-0.7,0.1-1.2,0-1.6c0-0.6-0.1-1-0.3-1.5c-0.3-0.6-0.5-0.6-0.8-1.1c-0.3-0.5-0.3-0.9-0.3-1.4
	c-0.1-0.6-0.4-1.4-1.2-2.4c0.3,0,1.2-0.2,1.8-0.9c0.2-0.2,0.3-0.4,0.4-0.6c0.5,0,1.1-0.1,1.8-0.3c0.9-0.3,1.6-0.7,2-1
	c0.6,0,1.3-0.1,2.2-0.4c1.1-0.4,2-0.9,2.4-1.3c0.5,0,1.3,0,2.1-0.2c1.3-0.4,2.2-1.1,2.6-1.6c0.3-0.2,0.8-0.6,1.1-1.3
	c0.3-0.5,0.5-1,0.6-1.3c0.1-0.1,1.3-1.2,0.9-2.6c-0.1-0.6-0.5-1-0.7-1.2c0-0.3,0-0.9-0.3-1.6c-0.4-0.7-1-1.2-1.5-1.4
	c-1.2-0.4-2.7,0.1-3.7,1.4c-0.4,0-1,0-1.6,0.2c-0.6,0.2-1.1,0.4-1.4,0.6c-0.5,0.1-1.1,0.2-1.7,0.4c-0.8,0.3-1.5,0.6-2,0.9
	c-0.7,0.1-1.6,0.2-2.6,0.6c-1.2,0.4-2.1,1-2.7,1.4c-0.4,0-0.7-0.1-1.1-0.1c-2.6,0-4.6,1.1-5.9,1.9c0-0.1,0-0.6-0.3-1
	c-0.4-0.4-0.9-0.4-1-0.4c0.5-0.1,1.5-0.3,2.4-1c0.5-0.4,0.9-0.9,1.1-1.2c0.6-0.1,1.3-0.2,2.2-0.5c1-0.3,1.8-0.8,2.3-1.1
	c0.4,0,0.9-0.1,1.5-0.2c0.6-0.2,1.1-0.4,1.5-0.6c0.7,0,1.6-0.1,2.7-0.3c1.1-0.3,1.9-0.7,2.5-1.1c0.5-0.1,1.1-0.2,1.9-0.6
	c0.8-0.4,1.4-0.9,1.7-1.2c0.5,0,1.4,0,2.4-0.5c1-0.5,1.6-1.1,1.9-1.5c0.3,0.1,1.5,0.4,2.8-0.2c1-0.5,1.5-1.3,1.6-1.6
	c0.2-0.2,0.6-0.5,0.9-1.2c0.4-1,0-1.9-0.1-2.1c0-0.3,0.1-1.1-0.4-2c-0.4-0.8-1-1.2-1.3-1.3c-0.4-0.3-0.9-0.7-1.5-1
	c-1.9-0.9-3.7-0.5-4.4-0.3c-0.6,0.1-1.3,0.3-2.1,0.6c-1.3,0.4-2.3,0.9-3.2,1.4c-0.5,0.1-1,0.3-1.5,0.5c-0.9,0.3-1.7,0.7-2.3,1.1
	c-0.6,0.1-1.2,0.2-1.8,0.3c-1.5,0.4-2.8,1-3.8,1.5c-0.8,0.1-1.7,0.4-2.8,0.8c-0.6,0.2-1.2,0.5-1.7,0.8c-1,0.1-2.2,0.4-3.6,0.9
	c-0.6,0.2-1.2,0.5-1.7,0.8c-0.5,0-1,0.1-1.7,0.3c-0.5,0.1-1,0.3-1.3,0.5c-0.2-0.1-0.5-0.3-0.9-0.4c-0.6-0.1-1,0-1.2,0.1
	c0.1-0.1,0.3-0.3,0.4-0.7c0.1-0.3,0.1-0.6,0-0.7c0.7,0,1.5-0.2,2.4-0.4c0.9-0.3,1.7-0.6,2.3-0.9c0.7-0.1,1.6-0.3,2.5-0.6
	c0.9-0.3,1.7-0.7,2.3-1c0.9,0,2.1-0.2,3.5-0.7c1-0.4,1.9-0.8,2.5-1.2c1.1-0.2,2.3-0.6,3.8-1.2c1.1-0.5,2.1-1.1,2.8-1.6
	c1.1-0.1,2.3-0.4,3.6-0.7c1.3-0.4,2.5-0.8,3.5-1.2c0.6-0.4,1.2-0.8,1.8-1.2c0.2,0,1.1-0.2,1.7-1c0.4-0.5,0.5-0.9,0.6-1.2
	c0.2-0.3,0.4-0.7,0.5-1.4c0.1-1-0.2-1.7-0.3-2c0-0.3,0-0.9-0.2-1.6c-0.3-0.8-0.9-1.3-1.1-1.5c-0.2-0.3-0.5-0.6-0.9-0.8
	c-1.2-0.8-2.5-0.7-2.9-0.6c-0.4-0.1-1-0.2-1.7-0.1c-0.8,0.1-1.4,0.4-1.8,0.6c-0.7,0-1.6,0.1-2.6,0.5c-1.2,0.4-2.1,0.9-2.7,1.3
	c-0.7,0.1-1.6,0.4-2.5,0.9c-1.2,0.6-2,1.2-2.6,1.8c-0.7,0-1.6,0.2-2.6,0.6c-1.3,0.5-2.3,1.2-2.8,1.7c-0.9-0.1-2.1-0.1-3.7,0.2
	c-1.5,0.3-2.6,0.9-3.3,1.3c-0.8,0-1.9,0-3,0.2c-0.8,0.1-1.5,0.3-2.1,0.5c-0.7,0.1-1.9,0.1-3.1-0.3c-0.9-0.3-1.3-0.7-1.8-0.5
	c-0.9,0.3-1.4,2-0.9,3.2c0.6,1.4,2.3,1.7,3.7,2c2.2,0.4,4.2-0.1,5.5-0.5c0.8-0.2,1.4-0.4,1.8-0.6c0.7,0.1,1.5,0.2,2.5,0.1
	c2.4-0.1,4.3-1,5.4-1.7c0.9-0.1,2.4-0.3,4-1.2c0.9-0.5,1.6-1.2,2.1-1.7c0.8-0.1,2.1-0.4,3.4-1.2c0.7-0.4,1.3-0.9,1.7-1.4
	c0.5,0,1.4,0,2.4-0.4c0.8-0.3,1.4-0.8,1.8-1.1c0.4,0.2,1.1,0.6,2,0.7c0.9,0.2,1.7,0.1,2.2,0c-0.1,0-0.5,0.1-0.7,0.6
	C165.6,92.2,165.7,92.5,165.7,92.6z"/>
<path class="st4" d="M176,94.7"/>
<path class="st2" d="M151.3,37.9c0.3-0.1,0.7-0.2,1.1-0.2c0.4-0.1,0.8-0.1,1.2-0.1c0,0.3-0.1,0.7-0.1,1c0,0.3-0.1,0.6-0.2,0.9
	c-0.2,0-0.4-0.1-0.6-0.1c-0.4-0.1-0.8-0.1-1.2-0.1C151.5,38.8,151.4,38.4,151.3,37.9z"/>
<path class="st7" d="M153.7,37.5c0.2,0.2,0.3,0.3,0.4,0.4c0.4,0.5,0.5,0.8,1,1.5c0.1,0.2,0.3,0.3,0.3,0.4c-0.3-0.1-0.5-0.1-0.8-0.2
	c-0.4-0.1-0.8-0.1-1.2-0.2C153.5,38.8,153.6,38.2,153.7,37.5z"/>
<path class="st2" d="M136.5,31.8c1-0.2,2-0.4,3-0.6c1.4-0.3,2.9-0.6,4.3-0.8c0.3,3,0.7,5.9,1,8.9c-1.2,0-2.4,0-3.7,0
	c-1.5,0.1-2.9,0.2-4.2,0.4C136.8,37,136.6,34.4,136.5,31.8z"/>
<path class="st7" d="M143.8,30.3c1.4,0.2,2.5,0.6,3.1,1c1,0.5,1.7,1.2,2.4,1.8c0.4,0.4,0.7,0.7,0.9,0.9c0.4,1,0.7,2.1,1,3.2
	c0.2,0.7,0.4,1.3,0.5,2c-1-0.1-1.8-0.1-2.5-0.1c-0.7,0-1.6,0-2.7,0c-0.7,0-1.2,0.1-1.7,0.1C144.5,36.2,144.1,33.3,143.8,30.3z"/>
<path class="st2" d="M126.7,37.8c2.6-0.5,5.3-1,7.9-1.5l3,9.4c-1.4,0-3.2,0.1-5.2,0.5c-1.8,0.3-3.3,0.8-4.5,1.3
	c-0.3-1.5-0.5-3.2-0.7-4.9C126.9,40.9,126.8,39.3,126.7,37.8z"/>
<path class="st8" d="M133.2,32.9c2.3-0.5,4.7-0.9,7-1.4c-0.3,0.1-0.7,0.1-1.2,0.3c-0.2,0.1-1.1,0.4-2.1,1.4c-1.1,1-1.9,2.2-2.4,3.1
	c-2.6,0.5-5.3,1-7.9,1.5c0.5-0.9,1.7-2.8,3.9-4C131.6,33.3,132.5,33,133.2,32.9z"/>
<path class="st7" d="M140.2,31.5c0.8,1.2,1.5,2.5,2.3,3.9c0.7,1.3,1.3,2.6,1.9,3.8c-0.8,0.2-2,0.5-3.1,1.4c-0.6,0.5-1,1-1.5,1.6
	c-0.6,0.8-1.4,1.9-2.2,3.5c-1-3.1-2-6.3-3-9.4c0.5-0.9,1.3-2.1,2.4-3.1c0.9-0.8,1.6-1.2,1.9-1.3C139.4,31.7,139.9,31.6,140.2,31.5z"
	/>
</svg>
